{
.appVersion = "1210";
copyright = "Copyright 2019 The Baumans Project Authors (github.com/laerm0/Baumans) with Reserved Font Name \"Baumans\".";
customParameters = (
{
name = openTypeOS2Panose;
value = (
2,
0,
5,
6,
2,
0,
0,
2,
0,
3
);
},
{
name = blueFuzz;
value = 0;
},
{
name = blueScale;
value = 0;
},
{
name = blueShift;
value = 7;
},
{
name = postscriptDefaultCharacter;
value = .notdef;
},
{
name = trademark;
value = "Baumans is a trademark of Cyreal (www.cyreal.org).";
},
{
name = licenseURL;
value = "http://scripts.sil.org/OFL";
},
{
name = license;
value = "This Font Software is licensed under the SIL Open Font License, Version 1.1. This license is available with a FAQ at: http://scripts.sil.org/OFL";
},
{
name = "Use Typo Metrics";
value = 1;
}
);
date = "2019-02-08 22:32:14 +0000";
designer = "Henadij Zarechnjuk";
designerURL = "http://cyreal.org";
disablesAutomaticAlignment = 1;
familyName = Baumans;
featurePrefixes = (
{
automatic = 1;
code = "languagesystem DFLT dflt;\012";
name = Languagesystems;
}
);
features = (
{
automatic = 1;
code = "feature sups;\012feature frac;\012feature ordn;\012";
name = aalt;
},
{
automatic = 1;
code = "sub one by onesuperior;\012sub two by twosuperior;\012sub three by threesuperior;\012sub four by foursuperior;\012";
name = sups;
},
{
automatic = 1;
code = "sub one slash four by onequarter;\012sub one slash two by onehalf;\012sub three slash four by threequarters;\012";
name = frac;
},
{
automatic = 1;
code = "sub [zero one two three four five six seven eight nine] [A a]' by ordfeminine;\012sub [zero one two three four five six seven eight nine] [O o]' by ordmasculine;\012";
name = ordn;
}
);
fontMaster = (
{
alignmentZones = (
"{700, 10}",
"{480, 10}",
"{0, -10}",
"{-218, -13}"
);
ascender = 700;
capHeight = 700;
customParameters = (
{
name = TTFStems;
value = (
{
horizontal = 0;
name = "X: 84";
width = 84;
},
{
horizontal = 1;
name = "y: 88";
width = 88;
}
);
},
{
name = TTFZones;
value = (
{
name = fig;

glyphs = (
{
glyphname = A;
lastChange = "2019-02-11 14:31:16 +0000";
layers = (
{
layerId = master01;
paths = (
{
closed = 1;
nodes = (
"149 0 LINE",
"149 432 LINE SMOOTH",
"149 565 OFFCURVE",
"219 612 OFFCURVE",
"309 612 CURVE SMOOTH",
"444 612 LINE",
"444 0 LINE",
"538 0 LINE",
"538 700 LINE",
"309 700 LINE SMOOTH",
"158 700 OFFCURVE",
"60 580 OFFCURVE",
"60 440 CURVE SMOOTH",
"60 0 LINE"
);
},
{
closed = 1;
nodes = (
"166 289 OFFCURVE",
"206 318 OFFCURVE",
"309 318 CURVE SMOOTH",
"400 318 LINE",
"400 406 LINE",
"309 406 LINE SMOOTH",
"200 406 OFFCURVE",
"154 365 OFFCURVE",
"111 297 CURVE",
"111 297 OFFCURVE",
"111 204 CURVE"
);
}
);
width = 608;
}
);
unicode = 0041;
},
{
glyphname = AE;
lastChange = "2019-02-11 14:31:16 +0000";
layers = (
{
layerId = master01;
paths = (
{
closed = 1;
nodes = (
"149 0 LINE",
"149 240 LINE",
"188 285 OFFCURVE",
"231 302 OFFCURVE",
"309 302 CURVE SMOOTH",
"410 302 LINE",
"410 390 LINE",
"309 390 LINE SMOOTH",
"230 390 OFFCURVE",
"184 368 OFFCURVE",
"149 331 CURVE",
"149 432 LINE SMOOTH",
"149 565 OFFCURVE",
"219 612 OFFCURVE",
"309 612 CURVE SMOOTH {name = hr04;}",
"444 612 LINE {name = hr05;}",
"444 0 LINE",
"534 0 LINE",
"534 700 LINE",
"309 700 LINE SMOOTH",
"158 700 OFFCURVE",
"60 580 OFFCURVE",
"60 440 CURVE SMOOTH {name = hr06;}",
"60 0 LINE"
);
},
{
closed = 1;
nodes = (
"838 0 LINE",
"838 88 LINE",
"534 88 LINE",
"534 0 LINE"
);
},
{
closed = 1;
nodes = (
"534 0 LINE",
"534 318 LINE {name = hr03;}",
"765 318 LINE",
"765 406 LINE",
"534 406 LINE",
"534 520 LINE SMOOTH",
"534 600 OFFCURVE",
"600 612 OFFCURVE",
"644 612 CURVE SMOOTH {name = hr01;}",
"838 612 LINE",
"838 700 LINE",
"640 700 LINE SMOOTH",
"542 700 OFFCURVE",
"485 649 OFFCURVE",
"444 470 CURVE {name = hr02;}",
"444 0 LINE"
);
}
);
width = 888;
}
);
unicode = 00C6;
},
{
glyphname = B;
lastChange = "2019-02-11 14:31:16 +0000";
layers = (
{
layerId = master01;
paths = (
{
closed = 1;
nodes = (
"158 0 LINE",
"158 475 LINE SMOOTH",
"158 575 OFFCURVE",
"218 622 OFFCURVE",
"294 622 CURVE SMOOTH",
"390 622 OFFCURVE",
"419 566 OFFCURVE",
"419 510 CURVE SMOOTH",
"419 441 OFFCURVE",
"356 401 OFFCURVE",
"288 401 CURVE SMOOTH",
"224 401 LINE",
"224 318 LINE",
"323 318 LINE SMOOTH",
"399 318 OFFCURVE",
"451 280 OFFCURVE",
"451 206 CURVE SMOOTH {name = hr01;}",
"451 122 OFFCURVE",
"409 88 OFFCURVE",
"318 88 CURVE SMOOTH",
"194 88 LINE",
"194 0 LINE",
"319 0 LINE SMOOTH",
"486 0 OFFCURVE",
"548 77 OFFCURVE",
"548 194 CURVE SMOOTH",
"548 285 OFFCURVE",
"505 348 OFFCURVE",
"419 373 CURVE {name = hr02;}",
"419 377 LINE",
"481 406 OFFCURVE",
"513 452 OFFCURVE",
"513 522 CURVE SMOOTH",
"513 617 OFFCURVE",
"450 710 OFFCURVE",
"296 710 CURVE SMOOTH",
"168 710 OFFCURVE",
"65 617 OFFCURVE",
"65 477 CURVE SMOOTH",
"65 0 LINE"
);
}
);
width = 593;
}
);
unicode = 0042;
},
{
glyphname = C;
lastChange = "2019-02-11 14:31:16 +0000";
layers = (
{
layerId = master01;
paths = (
{
closed = 1;
nodes = (
"470 0 LINE",
"470 88 LINE",
"393 88 LINE SMOOTH",
"239 88 OFFCURVE",
"163 204 OFFCURVE",
"161 350 CURVE",
"163 496 OFFCURVE",
"239 612 OFFCURVE",
"393 612 CURVE SMOOTH",
"470 612 LINE",
"470 700 LINE",
"405 700 LINE SMOOTH",
"191 700 OFFCURVE",
"62 573 OFFCURVE",
"60 350 CURVE SMOOTH",
"62 127 OFFCURVE",
"191 0 OFFCURVE",
"405 0 CURVE SMOOTH"
);
}
);
userData = {
com.typemytype.robofont.guides = (
{
angle = 0;
isGlobal = 0;
magnetic = 5;
x = 0;
y = 350;
},
{
angle = 90;
isGlobal = 0;
magnetic = 5;
x = 473;
y = 0;
}
);
};
width = 525;
}
);
unicode = 0043;
},
{
glyphname = D;
lastChange = "2019-02-11 14:31:16 +0000";
layers = (
{
layerId = master01;
paths = (
{
closed = 1;
nodes = (
"206 0 LINE SMOOTH",
"420 0 OFFCURVE",
"549 127 OFFCURVE",
"551 350 CURVE",
"549 573 OFFCURVE",
"420 700 OFFCURVE",
"206 700 CURVE SMOOTH",
"141 700 LINE",
"141 612 LINE",
"218 612 LINE SMOOTH",
"372 612 OFFCURVE",
"448 496 OFFCURVE",
"450 350 CURVE SMOOTH",
"448 204 OFFCURVE",
"372 88 OFFCURVE",
"218 88 CURVE SMOOTH",
"141 88 LINE",
"141 0 LINE"
);
},
{
closed = 1;
nodes = (
"185 0 LINE",
"185 88 LINE",
"164 88 LINE",
"164 612 LINE",
"178 612 LINE",
"178 700 LINE",
"70 700 LINE",
"70 0 LINE"
);
}
);
width = 611;
}
);
unicode = 0044;
},
{
glyphname = Eth;
lastChange = "2019-02-11 14:31:16 +0000";
layers = (
{
layerId = master01;
paths = (
{
closed = 1;
nodes = (
"206 0 LINE SMOOTH",
"399 0 OFFCURVE",
"551 140 OFFCURVE",
"551 354 CURVE SMOOTH",
"551 615 OFFCURVE",
"376 700 OFFCURVE",
"195 700 CURVE SMOOTH",
"70 700 LINE",
"70 0 LINE"
);
},
{
closed = 1;
nodes = (
"298 318 LINE",
"298 406 LINE",
"-6 406 LINE",
"-6 318 LINE"
);
},
{
closed = 1;
nodes = (
"164 612 LINE",
"198 612 LINE SMOOTH",
"356 612 OFFCURVE",
"450 519 OFFCURVE",
"450 356 CURVE SMOOTH",
"450 179 OFFCURVE",
"337 88 OFFCURVE",
"218 88 CURVE SMOOTH",
"164 88 LINE"
);
}
);
userData = {
com.typemytype.robofont.mark = (
zero.6,
1,
zero.854,
1
);
};
width = 611;
}
);
unicode = 00D0;
},
{
glyphname = E;
lastChange = "2019-02-11 14:31:16 +0000";
layers = (
{
layerId = master01;
paths = (
{
closed = 1;
nodes = (
"159 0 LINE",
"159 318 LINE",
"390 318 LINE",
"390 406 LINE",
"159 406 LINE",
"159 520 LINE SMOOTH",
"159 600 OFFCURVE",
"225 612 OFFCURVE",
"269 612 CURVE SMOOTH",
"463 612 LINE",
"463 700 LINE",
"282 700 LINE SMOOTH",
"220 700 OFFCURVE",
"160 697 OFFCURVE",
"112 652 CURVE SMOOTH",
"89 630 OFFCURVE",
"65 593 OFFCURVE",
"65 533 CURVE SMOOTH",
"65 0 LINE"
);
},
{
closed = 1;
nodes = (
"463 0 LINE",
"463 88 LINE",
"159 88 LINE",
"159 0 LINE"
);
}
);
userData = {
com.typemytype.robofont.guides = (
{
angle = 90;
isGlobal = 0;
magnetic = 5;
x = 64;
y = 0;
},
{
angle = 90;
isGlobal = 0;
magnetic = 5;
x = 390;
y = 0;
},
{
angle = 90;
isGlobal = 0;
magnetic = 5;
x = 463;
y = 0;
}
);
};
width = 508;
}
);
unicode = 0045;
},
{
glyphname = G;
lastChange = "2019-02-11 14:31:16 +0000";
layers = (
{
layerId = master01;
paths = (
{
closed = 1;
nodes = (
"559 0 LINE",
"559 386 LINE",
"362 386 LINE",
"362 298 LINE",
"465 298 LINE",
"465 88 LINE",
"393 88 LINE SMOOTH",
"239 88 OFFCURVE",
"163 204 OFFCURVE",
"161 350 CURVE",
"163 496 OFFCURVE",
"239 612 OFFCURVE",
"393 612 CURVE SMOOTH",
"520 612 LINE",
"520 700 LINE",
"405 700 LINE SMOOTH",
"191 700 OFFCURVE",
"62 573 OFFCURVE",
"60 350 CURVE SMOOTH",
"62 127 OFFCURVE",
"191 0 OFFCURVE",
"405 0 CURVE SMOOTH"
);
}
);
width = 614;
}
);
unicode = 0047;
},
{
glyphname = H;
lastChange = "2019-02-11 14:31:16 +0000";
layers = (
{
layerId = master01;
paths = (
{
closed = 1;
nodes = (
"164 0 LINE",
"164 318 LINE",
"468 318 LINE",
"468 0 LINE",
"562 0 LINE",
"562 700 LINE",
"468 700 LINE",
"468 406 LINE",
"164 406 LINE",
"164 700 LINE",
"70 700 LINE",
"70 0 LINE"
);
}
);
width = 632;
}
);
unicode = 0048;
},
{
glyphname = I;
lastChange = "2019-02-11 14:31:16 +0000";
layers = (
{
layerId = master01;
paths = (
{
closed = 1;
nodes = (
"164 0 LINE",
"164 700 LINE",
"70 700 LINE",
"70 0 LINE"
);
}
);
width = 234;
}
);
unicode = 0049;
},
{
glyphname = K;
lastChange = "2019-02-11 14:31:16 +0000";
layers = (
{
layerId = master01;
paths = (
{
closed = 1;
nodes = (
"498 0 LINE",
"498 125 LINE SMOOTH",
"498 322 OFFCURVE",
"387 422 OFFCURVE",
"155 415 CURVE",
"155 332 LINE",
"353 332 OFFCURVE",
"402 274 OFFCURVE",
"402 125 CURVE SMOOTH",
"402 0 LINE"
);
},
{
closed = 1;
nodes = (
"164 0 LINE",
"164 700 LINE",
"70 700 LINE",
"70 0 LINE"
);
},
{
closed = 1;
nodes = (
"495 700 LINE",
"393 700 LINE",
"235 375 LINE",
"321 355 LINE"
);
}
);
width = 548;
}
);
unicode = 004B;
},
{
glyphname = L;
lastChange = "2019-02-11 14:31:16 +0000";
layers = (
{
layerId = master01;
paths = (
{
closed = 1;
nodes = (
"457 0 LINE",
"457 88 LINE",
"286 88 LINE SMOOTH",
"243 88 OFFCURVE",
"197 102 OFFCURVE",
"177 149 CURVE SMOOTH",
"165 179 OFFCURVE",
"164 216 OFFCURVE",
"164 240 CURVE SMOOTH",
"164 700 LINE",
"70 700 LINE",
"70 238 LINE SMOOTH",
"70 174 OFFCURVE",
"73 96 OFFCURVE",
"129 45 CURVE SMOOTH",
"180 0 OFFCURVE",
"252 0 OFFCURVE",
"311 0 CURVE SMOOTH"
);
}
);
width = 482;
}
);
unicode = 004C;
},
{
glyphname = M;
lastChange = "2019-02-11 14:31:16 +0000";
layers = (
{
layerId = master01;
paths = (
{
closed = 1;
nodes = (
"164 0 LINE",
"164 594 LINE",
"201 579 OFFCURVE",
"213 553 OFFCURVE",
"228 503 CURVE SMOOTH",
"354 74 LINE",
"442 74 LINE",
"567 503 LINE SMOOTH",
"582 553 OFFCURVE",
"595 579 OFFCURVE",
"632 594 CURVE",
"632 0 LINE",
"726 0 LINE",
"726 700 LINE",
"583 700 OFFCURVE",
"519 662 OFFCURVE",
"483 526 CURVE SMOOTH",
"401 217 LINE",
"395 217 LINE",
"313 526 LINE SMOOTH",
"277 660 OFFCURVE",
"213 700 OFFCURVE",
"70 700 CURVE",
"70 0 LINE {name = hr01;}"
);
}
);
userData = {
com.typemytype.robofont.guides = (
{
angle = 0;
isGlobal = 0;
magnetic = 5;
x = 0;
y = 661;
}
);
};
width = 796;
}
);
unicode = 004D;
},
{
glyphname = N;
lastChange = "2019-02-11 14:31:16 +0000";
layers = (
{
layerId = master01;
paths = (
{
closed = 1;
nodes = (
"164 0 LINE",
"164 612 LINE",
"318 612 LINE SMOOTH",
"400 612 OFFCURVE",
"469 579 OFFCURVE",
"469 483 CURVE SMOOTH",
"469 0 LINE",
"563 0 LINE",
"563 470 LINE SMOOTH",
"563 631 OFFCURVE",
"480 700 OFFCURVE",
"317 700 CURVE SMOOTH",
"70 700 LINE",
"70 0 LINE"
);
}
);
userData = {
com.typemytype.robofont.guides = (
{
angle = 90;
isGlobal = 0;
magnetic = 5;
x = 169;
y = 0;
},
{
angle = 90;
isGlobal = 0;
magnetic = 5;
x = 468;
y = 0;
}
);
};
width = 628;
}
);
unicode = 004E;
},
{
glyphname = O;
lastChange = "2019-02-11 14:31:13 +0000";
layers = (
{
layerId = master01;
paths = (
{
closed = 1;
nodes = (
"585 -10 OFFCURVE",
"716 124 OFFCURVE",
"718 347 CURVE",
"716 570 OFFCURVE",
"585 710 OFFCURVE",
"389 710 CURVE SMOOTH",
"193 710 OFFCURVE",
"62 570 OFFCURVE",
"60 347 CURVE SMOOTH",
"62 124 OFFCURVE",
"193 -10 OFFCURVE",
"389 -10 CURVE SMOOTH"
);
},
{
closed = 1;
nodes = (
"241 78 OFFCURVE",
"163 201 OFFCURVE",
"161 347 CURVE",
"163 493 OFFCURVE",
"241 622 OFFCURVE",
"389 622 CURVE SMOOTH",
"537 622 OFFCURVE",
"615 493 OFFCURVE",
"617 347 CURVE SMOOTH",
"615 201 OFFCURVE",
"537 78 OFFCURVE",
"389 78 CURVE SMOOTH"
);
}
);
userData = {
com.typemytype.robofont.guides = (
{
angle = 0;
isGlobal = 0;
magnetic = 5;
x = 0;
y = 347;
},
{
angle = 90;
isGlobal = 0;
magnetic = 5;
x = 389;
y = 0;
}
);
};
width = 778;
}
);
unicode = 004F;
},
{
glyphname = Oslash;
lastChange = "2019-02-11 14:31:16 +0000";
layers = (
{
components = (
{
name = O;
transform = "{1, 0, 0, 1, 23, 0}";
}
);
layerId = master01;
paths = (
{
closed = 1;
nodes = (
"154 0 LINE",
"210 66 LINE",
"257 109 LINE",
"608 521 LINE",
"650 558 LINE",
"769 700 LINE",
"674 700 LINE",
"617 632 LINE",
"565 583 LINE",
"211 168 LINE",
"161 121 LINE",
"58 0 LINE"
);
}
);
userData = {
com.typemytype.robofont.guides = (
{
angle = 90;
isGlobal = 0;
magnetic = 5;
x = 65;
y = 0;
},
{
angle = 90;
isGlobal = 0;
magnetic = 5;
x = 759;
y = 0;
}
);
};
width = 828;
}
);
unicode = 00D8;
},
{
glyphname = OE;
lastChange = "2019-02-11 14:31:16 +0000";
layers = (
{
layerId = master01;
paths = (
{
closed = 1;
nodes = (
"608 -10 OFFCURVE",
"726 124 OFFCURVE",
"728 347 CURVE",
"726 570 OFFCURVE",
"608 710 OFFCURVE",
"412 710 CURVE SMOOTH",
"216 710 OFFCURVE",
"85 570 OFFCURVE",
"83 347 CURVE SMOOTH",
"85 124 OFFCURVE",
"216 -10 OFFCURVE",
"412 -10 CURVE SMOOTH"
);
},
{
closed = 1;
nodes = (
"264 78 OFFCURVE",
"186 201 OFFCURVE",
"184 347 CURVE",
"186 493 OFFCURVE",
"264 622 OFFCURVE",
"412 622 CURVE SMOOTH",
"560 622 OFFCURVE",
"638 493 OFFCURVE",
"640 347 CURVE SMOOTH {name = hr01;}",
"638 201 OFFCURVE",
"560 78 OFFCURVE",
"412 78 CURVE SMOOTH"
);
},
{
closed = 1;
nodes = (
"1038 0 LINE",
"1038 88 LINE",
"734 88 LINE",
"734 0 LINE"
);
},
{
closed = 1;
nodes = (
"734 0 LINE",
"734 318 LINE",
"965 318 LINE",
"965 406 LINE",
"734 406 LINE",
"734 520 LINE SMOOTH",
"734 600 OFFCURVE",
"800 612 OFFCURVE",
"844 612 CURVE SMOOTH {name = hr02;}",
"1038 612 LINE",
"1038 700 LINE",
"857 700 LINE SMOOTH",
"795 700 OFFCURVE",
"735 697 OFFCURVE",
"687 652 CURVE SMOOTH",
"664 630 OFFCURVE",
"640 593 OFFCURVE",
"640 533 CURVE SMOOTH {name = hr03;}",
"640 0 LINE"
);
}
);
width = 1098;
}
);
unicode = 0152;
},
{
glyphname = P;
lastChange = "2019-02-11 14:31:16 +0000";
layers = (
{
layerId = master01;
paths = (
{
closed = 1;
nodes = (
"159 0 LINE",
"159 464 LINE SMOOTH",
"159 556 OFFCURVE",
"209 622 OFFCURVE",
"296 622 CURVE SMOOTH",
"388 622 OFFCURVE",
"433 561 OFFCURVE",
"433 485 CURVE SMOOTH",
"433 406 OFFCURVE",
"381 343 OFFCURVE",
"289 343 CURVE SMOOTH",
"203 343 LINE",
"203 255 LINE",
"278 255 LINE SMOOTH",
"396 255 OFFCURVE",
"532 311 OFFCURVE",
"532 483 CURVE SMOOTH",
"532 609 OFFCURVE",
"452 710 OFFCURVE",
"297 710 CURVE SMOOTH",
"159 710 OFFCURVE",
"65 620 OFFCURVE",
"65 460 CURVE SMOOTH",
"65 0 LINE"
);
}
);
width = 567;
}
);
unicode = 0050;
},
{
glyphname = Thorn;
lastChange = "2019-02-11 14:31:16 +0000";
layers = (
{
layerId = master01;
paths = (
{
closed = 1;
nodes = (
"139 0 LINE",
"139 526 LINE",
"277 526 LINE SMOOTH",
"369 526 OFFCURVE",
"414 465 OFFCURVE",
"414 389 CURVE SMOOTH",
"414 310 OFFCURVE",
"362 247 OFFCURVE",
"270 247 CURVE SMOOTH",
"184 247 LINE",
"184 159 LINE",
"259 159 LINE SMOOTH",
"377 159 OFFCURVE",
"513 215 OFFCURVE",
"513 387 CURVE SMOOTH",
"513 513 OFFCURVE",
"433 614 OFFCURVE",
"278 614 CURVE SMOOTH",
"139 614 LINE",
"139 700 LINE",
"45 700 LINE",
"45 0 LINE"
);
}
);
userData = {
com.typemytype.robofont.guides = (
{
angle = 90;
isGlobal = 0;
magnetic = 5;
x = 175;
y = 0;
}
);
com.typemytype.robofont.mark = (
zero.6,
1,
zero.854,
1
);
};
width = 547;
}
);
unicode = 00DE;
},
{
glyphname = Q;
lastChange = "2019-02-11 14:31:16 +0000";
layers = (
{
components = (
{
name = O;
}
);
layerId = master01;
paths = (
{
closed = 1;
nodes = (
"722 -149 LINE",
"722 -60 LINE",
"653 -60 LINE",
"564 -49 OFFCURVE",
"501 39 OFFCURVE",
"408 74 CURVE",
"367 -5 LINE",
"460 -32 OFFCURVE",
"506 -146 OFFCURVE",
"651 -149 CURVE SMOOTH"
);
}
);
width = 778;
}
);
unicode = 0051;
},
{
glyphname = R;
layers = (
{
layerId = master01;
paths = (
{
closed = 1;
nodes = (
"159 0 LINE",
"159 455 LINE SMOOTH",
"159 578 OFFCURVE",
"209 622 OFFCURVE",
"297 622 CURVE SMOOTH",
"376 622 OFFCURVE",
"430 578 OFFCURVE",
"430 509 CURVE SMOOTH",
"430 452 OFFCURVE",
"403 377 OFFCURVE",
"260 377 CURVE SMOOTH",
"203 377 LINE",
"203 289 LINE",
"257 289 LINE SMOOTH",
"367 289 OFFCURVE",
"424 227 OFFCURVE",
"424 128 CURVE SMOOTH",
"424 0 LINE",
"518 0 LINE",
"518 75 LINE SMOOTH",
"518 237 OFFCURVE",
"494 295 OFFCURVE",
"392 334 CURVE",
"392 338 LINE",
"492 370 OFFCURVE",
"524 423 OFFCURVE",
"524 504 CURVE SMOOTH",
"524 633 OFFCURVE",
"444 710 OFFCURVE",
"294 710 CURVE SMOOTH",
"147 710 OFFCURVE",
"65 615 OFFCURVE",
"65 455 CURVE SMOOTH",
"65 0 LINE"
);
}
);
userData = {
com.typemytype.robofont.guides = (
{
angle = 90;
isGlobal = 0;
magnetic = 5;
x = 214;
y = 0;
}
);
};
width = 574;
}
);
unicode = 0052;
},
{
glyphname = S;
lastChange = "2019-02-11 14:31:16 +0000";
layers = (
{
layerId = master01;
paths = (
{
closed = 1;
nodes = (
"214 0 LINE SMOOTH",
"227 0 OFFCURVE",
"240 0 OFFCURVE",
"254 1 CURVE SMOOTH",
"336 4 OFFCURVE",
"464 57 OFFCURVE",
"464 199 CURVE SMOOTH",
"464 325 OFFCURVE",
"389 368 OFFCURVE",
"310 397 CURVE SMOOTH",
"228 427 OFFCURVE",
"145 465 OFFCURVE",
"145 530 CURVE SMOOTH",
"145 590 OFFCURVE",
"182 612 OFFCURVE",
"246 612 CURVE SMOOTH",
"423 612 LINE",
"423 700 LINE",
"240 700 LINE SMOOTH",
"132 700 OFFCURVE",
"45 650 OFFCURVE",
"45 533 CURVE SMOOTH",
"45 419 OFFCURVE",
"126 366 OFFCURVE",
"202 337 CURVE SMOOTH",
"285 305 OFFCURVE",
"365 279 OFFCURVE",
"365 200 CURVE SMOOTH",
"365 123 OFFCURVE",
"296 88 OFFCURVE",
"211 88 CURVE SMOOTH",
"58 88 LINE",
"58 0 LINE"
);
}
);
width = 504;
}
);
unicode = 0053;
},
{
glyphname = T;
lastChange = "2019-02-11 14:31:16 +0000";
layers = (
{
layerId = master01;
paths = (
{
closed = 1;
nodes = (
"292 0 LINE",
"292 612 LINE",
"465 612 LINE",
"465 700 LINE",
"25 700 LINE",
"25 612 LINE",
"198 612 LINE",
"198 0 LINE"
);
}
);
width = 490;
}
);
unicode = 0054;
},
{
glyphname = U;
lastChange = "2019-02-11 14:31:16 +0000";
layers = (
{
layerId = master01;
paths = (
{
closed = 1;
nodes = (
"474 -10 OFFCURVE",
"558 59 OFFCURVE",
"558 220 CURVE SMOOTH",
"558 700 LINE",
"464 700 LINE",
"464 207 LINE SMOOTH",
"464 111 OFFCURVE",
"395 78 OFFCURVE",
"310 78 CURVE SMOOTH",
"228 78 OFFCURVE",
"159 111 OFFCURVE",
"159 207 CURVE SMOOTH",
"159 700 LINE",
"65 700 LINE",
"65 220 LINE SMOOTH",
"65 59 OFFCURVE",
"148 -10 OFFCURVE",
"311 -10 CURVE SMOOTH"
);
}
);
width = 623;
}
);
unicode = 0055;
},
{
glyphname = V;
lastChange = "2019-02-11 14:31:16 +0000";
layers = (
{
layerId = master01;
paths = (
{
closed = 1;
nodes = (
"467 47 OFFCURVE",
"548 186 OFFCURVE",
"548 363 CURVE SMOOTH",
"548 700 LINE",
"454 700 LINE",
"454 366 LINE SMOOTH",
"454 242 OFFCURVE",
"420 150 OFFCURVE",
"303 83 CURVE",
"183 149 OFFCURVE",
"151 241 OFFCURVE",
"151 366 CURVE SMOOTH",
"151 700 LINE",
"55 700 LINE",
"55 354 LINE SMOOTH",
"55 180 OFFCURVE",
"139 45 OFFCURVE",
"302 -20 CURVE"
);
}
);
width = 603;
}
);
unicode = 0056;
},
{
glyphname = Y;
lastChange = "2019-02-11 14:31:16 +0000";
layers = (
{
layerId = master01;
paths = (
{
closed = 1;
nodes = (
"423 313 OFFCURVE",
"498 467 OFFCURVE",
"498 644 CURVE SMOOTH",
"498 700 LINE",
"404 700 LINE",
"404 644 LINE SMOOTH",
"404 520 OFFCURVE",
"374 419 OFFCURVE",
"273 352 CURVE",
"169 418 OFFCURVE",
"141 519 OFFCURVE",
"141 644 CURVE SMOOTH",
"141 700 LINE",
"45 700 LINE",
"45 635 LINE SMOOTH",
"45 461 OFFCURVE",
"123 311 OFFCURVE",
"272 246 CURVE"
);
},
{
closed = 1;
nodes = (
"321 0 LINE",
"321 352 LINE",
"227 352 LINE",
"227 0 LINE"
);
}
);
width = 543;
}
);
unicode = 0059;
},
{
glyphname = Z;
lastChange = "2019-02-11 14:31:16 +0000";
layers = (
{
layerId = master01;
paths = (
{
closed = 1;
nodes = (
"141 0 LINE",
"141 44 LINE SMOOTH",
"141 162 OFFCURVE",
"190 229 OFFCURVE",
"279 305 CURVE SMOOTH",
"350 366 OFFCURVE",
"419 438 OFFCURVE",
"455 538 CURVE SMOOTH",
"470 579 OFFCURVE",
"474 625 OFFCURVE",
"474 679 CURVE SMOOTH",
"474 700 LINE",
"384 700 LINE",
"384 688 LINE SMOOTH",
"384 539 OFFCURVE",
"295 452 OFFCURVE",
"204 366 CURVE SMOOTH",
"118 285 OFFCURVE",
"45 194 OFFCURVE",
"45 44 CURVE SMOOTH",
"45 0 LINE"
);
},
{
closed = 1;
nodes = (
"476 0 LINE",
"476 88 LINE",
"64 88 LINE",
"64 0 LINE"
);
},
{
closed = 1;
nodes = (
"446 612 LINE",
"446 700 LINE",
"45 700 LINE",
"45 612 LINE"
);
}
);
width = 521;
}
);
unicode = 005A;
},
{
glyphname = a;
lastChange = "2019-02-11 14:31:16 +0000";
layers = (
{
layerId = master01;
paths = (
{
closed = 1;
nodes = (
"453 0 LINE",
"453 294 LINE SMOOTH",
"453 415 OFFCURVE",
"380 480 OFFCURVE",
"252 480 CURVE SMOOTH",
"87 480 LINE",
"87 396 LINE",
"247 396 LINE SMOOTH",
"319 396 OFFCURVE",
"365 361 OFFCURVE",
"365 275 CURVE SMOOTH",
"365 84 LINE",
"233 84 LINE SMOOTH",
"192 84 OFFCURVE",
"135 95 OFFCURVE",
"135 150 CURVE SMOOTH",
"135 195 OFFCURVE",
"172 221 OFFCURVE",
"234 221 CURVE SMOOTH",
"262 221 OFFCURVE",
"294 217 OFFCURVE",
"327 192 CURVE",
"327 282 LINE",
"295 292 OFFCURVE",
"265 298 OFFCURVE",
"231 298 CURVE SMOOTH",
"131 298 OFFCURVE",
"45 252 OFFCURVE",
"45 149 CURVE SMOOTH",
"45 49 OFFCURVE",
"121 0 OFFCURVE",
"230 0 CURVE SMOOTH"
);
}
);
width = 503;
}
);
unicode = 0061;
},
{
glyphname = ae;
lastChange = "2019-02-11 14:31:16 +0000";
layers = (
{
layerId = master01;
paths = (
{
closed = 1;
nodes = (
"676 -10 OFFCURVE",
"736 11 OFFCURVE",
"779 46 CURVE",
"719 105 LINE",
"693 85 OFFCURVE",
"654 74 OFFCURVE",
"616 74 CURVE SMOOTH",
"523 74 OFFCURVE",
"459 141 OFFCURVE",
"459 240 CURVE SMOOTH",
"459 328 OFFCURVE",
"512 410 OFFCURVE",
"611 410 CURVE SMOOTH",
"656 410 OFFCURVE",
"693 392 OFFCURVE",
"693 348 CURVE SMOOTH",
"693 286 OFFCURVE",
"665 259 OFFCURVE",
"574 259 CURVE SMOOTH",
"526 259 LINE",
"526 182 LINE",
"567 182 LINE SMOOTH",
"699 182 OFFCURVE",
"786 229 OFFCURVE",
"786 349 CURVE SMOOTH",
"786 448 OFFCURVE",
"719 490 OFFCURVE",
"616 490 CURVE SMOOTH",
"530 490 OFFCURVE",
"464 461 OFFCURVE",
"421 408 CURVE",
"388 455 OFFCURVE",
"331 480 OFFCURVE",
"252 480 CURVE SMOOTH",
"87 480 LINE",
"87 396 LINE",
"247 396 LINE SMOOTH",
"319 396 OFFCURVE",
"367 361 OFFCURVE",
"367 275 CURVE SMOOTH",
"367 249 OFFCURVE",
"366 239 OFFCURVE",
"366 230 CURVE SMOOTH",
"366 195 OFFCURVE",
"372 163 OFFCURVE",
"383 134 CURVE",
"339 100 OFFCURVE",
"291 78 OFFCURVE",
"234 78 CURVE SMOOTH",
"172 78 OFFCURVE",
"135 105 OFFCURVE",
"135 150 CURVE SMOOTH",
"135 195 OFFCURVE",
"172 221 OFFCURVE",
"234 221 CURVE SMOOTH",
"257 221 OFFCURVE",
"282 219 OFFCURVE",
"309 204 CURVE",
"308 288 LINE",
"283 295 OFFCURVE",
"258 298 OFFCURVE",
"231 298 CURVE SMOOTH",
"131 298 OFFCURVE",
"45 254 OFFCURVE",
"45 151 CURVE SMOOTH",
"45 48 OFFCURVE",
"131 1 OFFCURVE",
"231 1 CURVE SMOOTH",
"302 1 OFFCURVE",
"367 28 OFFCURVE",
"423 69 CURVE",
"466 19 OFFCURVE",
"532 -10 OFFCURVE",
"616 -10 CURVE SMOOTH {name = hr01;}"
);
}
);
width = 812;
}
);
unicode = 00E6;
},
{
glyphname = b;
lastChange = "2019-02-11 14:31:16 +0000";
layers = (
{
layerId = master01;
paths = (
{
closed = 1;
nodes = (
"434 -10 OFFCURVE",
"550 74 OFFCURVE",
"550 240 CURVE SMOOTH",
"550 394 OFFCURVE",
"444 490 OFFCURVE",
"305 490 CURVE SMOOTH",
"261 490 OFFCURVE",
"221 479 OFFCURVE",
"186 460 CURVE",
"186 370 LINE",
"217 394 OFFCURVE",
"263 406 OFFCURVE",
"295 406 CURVE SMOOTH",
"391 406 OFFCURVE",
"460 345 OFFCURVE",
"460 240 CURVE SMOOTH",
"460 129 OFFCURVE",
"398 74 OFFCURVE",
"302 74 CURVE SMOOTH",
"209 74 OFFCURVE",
"150 133 OFFCURVE",
"150 240 CURVE SMOOTH",
"150 700 LINE",
"60 700 LINE",
"60 240 LINE SMOOTH",
"60 86 OFFCURVE",
"156 -10 OFFCURVE",
"295 -10 CURVE SMOOTH"
);
}
);
width = 595;
}
);
unicode = 0062;
},
{
glyphname = c;
lastChange = "2019-02-11 14:31:16 +0000";
layers = (
{
layerId = master01;
paths = (
{
closed = 1;
nodes = (
"350 -10 OFFCURVE",
"405 11 OFFCURVE",
"448 46 CURVE",
"388 105 LINE",
"362 85 OFFCURVE",
"328 74 OFFCURVE",
"290 74 CURVE SMOOTH",
"197 74 OFFCURVE",
"140 141 OFFCURVE",
"140 240 CURVE SMOOTH",
"140 339 OFFCURVE",
"197 406 OFFCURVE",
"290 406 CURVE SMOOTH",
"329 406 OFFCURVE",
"363 394 OFFCURVE",
"389 374 CURVE",
"448 434 LINE",
"405 469 OFFCURVE",
"350 490 OFFCURVE",
"290 490 CURVE SMOOTH",
"151 490 OFFCURVE",
"45 379 OFFCURVE",
"45 240 CURVE SMOOTH",
"45 101 OFFCURVE",
"139 -10 OFFCURVE",
"290 -10 CURVE SMOOTH"
);
}
);
width = 473;
}
);
unicode = 0063;
},
{
glyphname = d;
lastChange = "2019-02-11 14:31:16 +0000";
layers = (
{
layerId = master01;
paths = (
{
closed = 1;
nodes = (
"525 0 LINE",
"525 700 LINE",
"435 700 LINE",
"435 84 LINE",
"290 84 LINE SMOOTH",
"194 84 OFFCURVE",
"140 149 OFFCURVE",
"140 245 CURVE SMOOTH",
"140 343 OFFCURVE",
"206 406 OFFCURVE",
"283 406 CURVE SMOOTH",
"323 406 OFFCURVE",
"364 395 OFFCURVE",
"399 370 CURVE",
"399 460 LINE",
"361 481 OFFCURVE",
"321 490 OFFCURVE",
"283 490 CURVE SMOOTH",
"156 490 OFFCURVE",
"45 386 OFFCURVE",
"45 245 CURVE SMOOTH",
"45 106 OFFCURVE",
"143 0 OFFCURVE",
"290 0 CURVE SMOOTH"
);
}
);
width = 585;
}
);
unicode = 0064;
},
{
glyphname = eth;
lastChange = "2019-02-11 14:31:16 +0000";
layers = (
{
layerId = master01;
paths = (
{
closed = 1;
nodes = (
"450 -10 OFFCURVE",
"537 121 OFFCURVE",
"537 268 CURVE SMOOTH",
"537 396 OFFCURVE",
"470 520 OFFCURVE",
"385 600 CURVE",
"476 649 LINE",
"427 707 LINE",
"324 652 LINE",
"277 688 OFFCURVE",
"238 705 OFFCURVE",
"219 712 CURVE",
"165 656 LINE",
"182 649 OFFCURVE",
"205 639 OFFCURVE",
"248 611 CURVE",
"157 564 LINE",
"205 506 LINE",
"311 561 LINE",
"394 483 OFFCURVE",
"449 375 OFFCURVE",
"449 268 CURVE SMOOTH",
"449 122 OFFCURVE",
"384 74 OFFCURVE",
"288 74 CURVE SMOOTH",
"195 74 OFFCURVE",
"133 141 OFFCURVE",
"133 240 CURVE SMOOTH",
"133 327 OFFCURVE",
"190 386 OFFCURVE",
"289 386 CURVE SMOOTH",
"317 386 OFFCURVE",
"339 380 OFFCURVE",
"356 373 CURVE",
"338 466 LINE",
"325 469 OFFCURVE",
"305 470 OFFCURVE",
"288 470 CURVE SMOOTH",
"147 470 OFFCURVE",
"44 370 OFFCURVE",
"44 240 CURVE SMOOTH",
"44 103 OFFCURVE",
"145 -10 OFFCURVE",
"290 -10 CURVE SMOOTH"
);
}
);
width = 586;
}
);
unicode = 00F0;
},
{
glyphname = e;
lastChange = "2019-02-11 14:31:16 +0000";
layers = (
{
layerId = master01;
paths = (
{
closed = 1;
nodes = (
"355 -10 OFFCURVE",
"415 11 OFFCURVE",
"458 46 CURVE",
"398 105 LINE",
"372 85 OFFCURVE",
"333 74 OFFCURVE",
"295 74 CURVE SMOOTH",
"202 74 OFFCURVE",
"138 141 OFFCURVE",
"138 240 CURVE SMOOTH",
"138 328 OFFCURVE",
"191 410 OFFCURVE",
"290 410 CURVE SMOOTH",
"335 410 OFFCURVE",
"372 392 OFFCURVE",
"372 348 CURVE SMOOTH",
"372 286 OFFCURVE",
"344 259 OFFCURVE",
"253 259 CURVE SMOOTH",
"205 259 LINE",
"205 182 LINE",
"246 182 LINE SMOOTH",
"378 182 OFFCURVE",
"465 229 OFFCURVE",
"465 349 CURVE SMOOTH",
"465 448 OFFCURVE",
"398 486 OFFCURVE",
"295 490 CURVE SMOOTH",
"136 495 OFFCURVE",
"45 383 OFFCURVE",
"45 230 CURVE SMOOTH",
"45 91 OFFCURVE",
"141 -10 OFFCURVE",
"295 -10 CURVE SMOOTH"
);
}
);
width = 505;
}
);
unicode = 0065;
},
{
glyphname = f;
lastChange = "2019-02-11 14:31:16 +0000";
layers = (
{
layerId = master01;
paths = (
{
closed = 1;
nodes = (
"181 0 LINE",
"181 396 LINE",
"296 396 LINE",
"296 480 LINE",
"181 480 LINE",
"181 579 OFFCURVE",
"243 617 OFFCURVE",
"336 617 CURVE",
"336 701 LINE",
"197 701 OFFCURVE",
"91 619 OFFCURVE",
"91 480 CURVE",
"63 480 LINE",
"23 396 LINE",
"91 396 LINE",
"91 0 LINE"
);
}
);
width = 316;
}
);
unicode = 0066;
},
{
glyphname = g;
lastChange = "2019-02-11 14:31:16 +0000";
layers = (
{
layerId = master01;
paths = (
{
closed = 1;
nodes = (
"251 -228 LINE SMOOTH",
"294 -228 OFFCURVE",
"348 -224 OFFCURVE",
"402 -196 CURVE",
"452 -165 OFFCURVE",
"525 -113 OFFCURVE",
"525 14 CURVE SMOOTH",
"525 480 LINE",
"290 480 LINE SMOOTH",
"151 480 OFFCURVE",
"45 374 OFFCURVE",
"45 235 CURVE SMOOTH",
"45 94 OFFCURVE",
"156 0 OFFCURVE",
"283 0 CURVE SMOOTH",
"321 0 OFFCURVE",
"361 9 OFFCURVE",
"399 30 CURVE",
"399 120 LINE",
"364 95 OFFCURVE",
"323 84 OFFCURVE",
"283 84 CURVE SMOOTH",
"206 84 OFFCURVE",
"135 137 OFFCURVE",
"135 235 CURVE SMOOTH",
"135 331 OFFCURVE",
"194 396 OFFCURVE",
"290 396 CURVE SMOOTH",
"435 396 LINE",
"435 4 LINE SMOOTH",
"435 -72 OFFCURVE",
"394 -107 OFFCURVE",
"367 -122 CURVE SMOOTH",
"342 -137 OFFCURVE",
"306 -144 OFFCURVE",
"242 -144 CURVE SMOOTH",
"139 -144 LINE",
"139 -228 LINE"
);
}
);
width = 590;
}
);
unicode = 0067;
},
{
glyphname = h;
lastChange = "2019-02-11 14:31:16 +0000";
layers = (
{
layerId = master01;
paths = (
{
closed = 1;
nodes = (
"148 0 LINE",
"148 396 LINE",
"262 396 LINE SMOOTH",
"366 396 OFFCURVE",
"370 314 OFFCURVE",
"370 270 CURVE SMOOTH",
"370 0 LINE",
"458 0 LINE",
"458 271 LINE SMOOTH",
"458 341 OFFCURVE",
"455 404 OFFCURVE",
"392 447 CURVE SMOOTH",
"347 478 OFFCURVE",
"284 480 OFFCURVE",
"233 480 CURVE SMOOTH",
"148 480 LINE",
"148 700 LINE",
"60 700 LINE",
"60 0 LINE"
);
}
);
width = 518;
}
);
unicode = 0068;
},
{
glyphname = i;
lastChange = "2019-02-11 14:31:16 +0000";
layers = (
{
layerId = master01;
paths = (
{
closed = 1;
nodes = (
"190 0 LINE",
"190 480 LINE",
"60 480 LINE",
"20 396 LINE",
"102 396 LINE",
"102 0 LINE"
);
},
{
closed = 1;
nodes = (
"177 564 OFFCURVE",
"191 594 OFFCURVE",
"191 617 CURVE SMOOTH",
"191 640 OFFCURVE",
"177 670 OFFCURVE",
"138 670 CURVE SMOOTH",
"99 670 OFFCURVE",
"85 640 OFFCURVE",
"85 617 CURVE SMOOTH",
"85 594 OFFCURVE",
"99 564 OFFCURVE",
"138 564 CURVE SMOOTH"
);
}
);
width = 264;
}
);
unicode = 0069;
},
{
glyphname = idotless;
lastChange = "2019-02-11 14:31:16 +0000";
layers = (
{
layerId = master01;
paths = (
{
closed = 1;
nodes = (
"190 0 LINE",
"190 480 LINE",
"60 480 LINE",
"20 396 LINE",
"102 396 LINE",
"102 0 LINE"
);
}
);
width = 264;
}
);
unicode = 0131;
},
{
glyphname = iacute;
lastChange = "2019-02-11 14:31:16 +0000";
layers = (
{
components = (
{
name = acute;
transform = "{1, 0, 0, 1, 37, 0}";
}
);
layerId = master01;
paths = (
{
closed = 1;
nodes = (
"190 0 LINE",
"190 480 LINE",
"60 480 LINE",
"20 396 LINE",
"102 396 LINE",
"102 0 LINE"
);
}
);
width = 264;
}
);
unicode = 00ED;
},
{
glyphname = icircumflex;
lastChange = "2019-02-11 14:31:16 +0000";
layers = (
{
components = (
{
name = circumflex;
transform = "{1, 0, 0, 1, -59, 0}";
}
);
layerId = master01;
paths = (
{
closed = 1;
nodes = (
"190 0 LINE",
"190 480 LINE",
"60 480 LINE",
"20 396 LINE",
"102 396 LINE",
"102 0 LINE"
);
}
);
width = 264;
}
);
unicode = 00EE;
},
{
glyphname = idieresis;
lastChange = "2019-02-11 14:31:16 +0000";
layers = (
{
components = (
{
name = dieresis;
transform = "{1, 0, 0, 1, -49, 0}";
}
);
layerId = master01;
paths = (
{
closed = 1;
nodes = (
"190 0 LINE",
"190 480 LINE",
"60 480 LINE",
"20 396 LINE",
"102 396 LINE",
"102 0 LINE"
);
}
);
width = 264;
}
);
unicode = 00EF;
},
{
glyphname = igrave;
lastChange = "2019-02-11 14:31:16 +0000";
layers = (
{
components = (
{
name = grave;
transform = "{1, 0, 0, 1, -33, 0}";
}
);
layerId = master01;
paths = (
{
closed = 1;
nodes = (
"190 0 LINE",
"190 480 LINE",
"60 480 LINE",
"20 396 LINE",
"102 396 LINE",
"102 0 LINE"
);
}
);
width = 264;
}
);
unicode = 00EC;
},
{
glyphname = j;
lastChange = "2019-02-11 14:31:16 +0000";
layers = (
{
layerId = master01;
paths = (
{
closed = 1;
nodes = (
"109 -228 OFFCURVE",
"164 -177 OFFCURVE",
"164 -38 CURVE SMOOTH",
"164 480 LINE",
"34 480 LINE",
"-6 396 LINE",
"76 396 LINE",
"76 -38 LINE SMOOTH",
"76 -137 OFFCURVE",
"23 -144 OFFCURVE",
"-40 -144 CURVE",
"-40 -228 LINE"
);
},
{
closed = 1;
nodes = (
"151 564 OFFCURVE",
"165 594 OFFCURVE",
"165 617 CURVE SMOOTH",
"165 640 OFFCURVE",
"151 670 OFFCURVE",
"112 670 CURVE SMOOTH",
"73 670 OFFCURVE",
"59 640 OFFCURVE",
"59 617 CURVE SMOOTH",
"59 594 OFFCURVE",
"73 564 OFFCURVE",
"112 564 CURVE SMOOTH"
);
}
);
width = 238;
}
);
unicode = 006A;
},
{
glyphname = k;
lastChange = "2019-02-11 14:31:16 +0000";
layers = (
{
layerId = master01;
paths = (
{
closed = 1;
nodes = (
"148 0 LINE",
"148 210 LINE",
"164 212 OFFCURVE",
"180 213 OFFCURVE",
"195 213 CURVE SMOOTH",
"292 213 OFFCURVE",
"347 162 OFFCURVE",
"347 73 CURVE SMOOTH",
"347 0 LINE",
"435 0 LINE",
"435 72 LINE SMOOTH",
"435 160 OFFCURVE",
"409 245 OFFCURVE",
"312 271 CURVE",
"433 480 LINE",
"336 480 LINE",
"232 289 LINE",
"204 293 OFFCURVE",
"176 293 OFFCURVE",
"148 289 CURVE",
"148 700 LINE",
"60 700 LINE",
"60 0 LINE"
);
}
);
userData = {
com.typemytype.robofont.guides = (
{
angle = 90;
isGlobal = 0;
magnetic = 5;
x = 436;
y = 0;
}
);
};
width = 480;
}
);
unicode = 006B;
},
{
glyphname = l;
lastChange = "2019-02-11 14:31:16 +0000";
layers = (
{
layerId = master01;
paths = (
{
closed = 1;
nodes = (
"265 84 LINE",
"202 84 OFFCURVE",
"150 91 OFFCURVE",
"150 190 CURVE SMOOTH",
"150 700 LINE",
"60 700 LINE",
"60 190 LINE SMOOTH",
"60 51 OFFCURVE",
"116 0 OFFCURVE",
"265 0 CURVE"
);
}
);
width = 270;
}
);
unicode = 006C;
},
{
glyphname = n;
lastChange = "2019-02-11 14:31:16 +0000";
layers = (
{
layerId = master01;
paths = (
{
closed = 1;
nodes = (
"153 0 LINE",
"153 396 LINE",
"267 396 LINE SMOOTH",
"371 396 OFFCURVE",
"375 314 OFFCURVE",
"375 270 CURVE SMOOTH",
"375 0 LINE",
"463 0 LINE",
"463 271 LINE SMOOTH",
"463 341 OFFCURVE",
"460 404 OFFCURVE",
"397 447 CURVE SMOOTH",
"352 478 OFFCURVE",
"289 480 OFFCURVE",
"238 480 CURVE SMOOTH",
"65 480 LINE",
"65 0 LINE"
);
}
);
width = 523;
}
);
unicode = 006E;
},
{
glyphname = o;
lastChange = "2019-02-11 14:31:16 +0000";
layers = (
{
layerId = master01;
paths = (
{
closed = 1;
nodes = (
"429 -10 OFFCURVE",
"535 101 OFFCURVE",
"535 240 CURVE SMOOTH",
"535 379 OFFCURVE",
"429 490 OFFCURVE",
"290 490 CURVE SMOOTH",
"151 490 OFFCURVE",
"45 379 OFFCURVE",
"45 240 CURVE SMOOTH",
"45 101 OFFCURVE",
"151 -10 OFFCURVE",
"290 -10 CURVE SMOOTH"
);
},
{
closed = 1;
nodes = (
"197 74 OFFCURVE",
"135 141 OFFCURVE",
"135 240 CURVE SMOOTH",
"135 339 OFFCURVE",
"197 406 OFFCURVE",
"290 406 CURVE SMOOTH",
"386 406 OFFCURVE",
"445 336 OFFCURVE",
"445 240 CURVE SMOOTH",
"445 144 OFFCURVE",
"386 74 OFFCURVE",
"290 74 CURVE SMOOTH"
);
}
);
width = 580;
}
);
unicode = 006F;
},
{
glyphname = oslash;
lastChange = "2019-02-11 14:31:16 +0000";
layers = (
{
components = (
{
name = o;
transform = "{1, 0, 0, 1, -7, 0}";
}
);
layerId = master01;
paths = (
{
closed = 1;
nodes = (
"119 -15 LINE",
"160 39 LINE",
"197 75 LINE",
"409 352 LINE",
"448 390 LINE",
"537 507 LINE",
"448 507 LINE",
"393 436 LINE",
"365 412 LINE",
"143 122 LINE",
"103 82 LINE",
"29 -15 LINE"
);
}
);
userData = {
com.typemytype.robofont.guides = (
{
angle = 0;
isGlobal = 0;
magnetic = 5;
x = 0;
y = -15;
},
{
angle = 0;
isGlobal = 0;
magnetic = 5;
x = 0;
y = 507;
},
{
angle = 90;
isGlobal = 0;
magnetic = 5;
x = 39;
y = 0;
},
{
angle = 90;
isGlobal = 0;
magnetic = 5;
x = 528;
y = 0;
}
);
};
width = 566;
}
);
unicode = 00F8;
},
{
glyphname = p;
lastChange = "2019-02-11 14:31:13 +0000";
layers = (
{
layerId = master01;
paths = (
{
closed = 1;
nodes = (
"150 -228 LINE",
"150 240 LINE SMOOTH",
"150 339 OFFCURVE",
"212 406 OFFCURVE",
"305 406 CURVE SMOOTH",
"401 406 OFFCURVE",
"460 336 OFFCURVE",
"460 240 CURVE SMOOTH",
"460 144 OFFCURVE",
"401 74 OFFCURVE",
"302 74 CURVE SMOOTH",
"262 74 OFFCURVE",
"221 85 OFFCURVE",
"186 110 CURVE",
"186 20 LINE",
"221 1 OFFCURVE",
"261 -10 OFFCURVE",
"305 -10 CURVE SMOOTH",
"444 -10 OFFCURVE",
"550 101 OFFCURVE",
"550 240 CURVE SMOOTH",
"550 379 OFFCURVE",
"444 490 OFFCURVE",
"305 490 CURVE SMOOTH",
"166 490 OFFCURVE",
"60 379 OFFCURVE",
"60 240 CURVE SMOOTH",
"60 -228 LINE"
);
}
);
width = 595;
}
);
unicode = 0070;
},
{
glyphname = thorn;
lastChange = "2019-02-11 14:31:16 +0000";
layers = (
{
layerId = master01;
paths = (
{
closed = 1;
nodes = (
"145 -229 LINE",
"145 406 LINE",
"290 406 LINE SMOOTH",
"400 406 OFFCURVE",
"457 336 OFFCURVE",
"457 240 CURVE SMOOTH",
"457 142 OFFCURVE",
"390 74 OFFCURVE",
"297 74 CURVE SMOOTH",
"257 74 OFFCURVE",
"216 85 OFFCURVE",
"181 110 CURVE",
"181 20 LINE",
"219 -1 OFFCURVE",
"259 -10 OFFCURVE",
"297 -10 CURVE SMOOTH",
"437 -10 OFFCURVE",
"546 99 OFFCURVE",
"546 240 CURVE SMOOTH",
"546 387 OFFCURVE",
"445 490 OFFCURVE",
"290 490 CURVE SMOOTH",
"145 490 LINE",
"145 701 LINE",
"55 701 LINE",
"55 -229 LINE"
);
}
);
userData = {
com.typemytype.robofont.mark = (
zero.6,
1,
zero.854,
1
);
};
width = 580;
}
);
unicode = 00FE;
},
{
glyphname = q;
lastChange = "2019-02-11 14:31:16 +0000";
layers = (
{
layerId = master01;
paths = (
{
closed = 1;
nodes = (
"535 -228 LINE",
"535 240 LINE SMOOTH",
"535 412 OFFCURVE",
"429 490 OFFCURVE",
"290 490 CURVE SMOOTH",
"151 490 OFFCURVE",
"45 379 OFFCURVE",
"45 240 CURVE SMOOTH",
"45 101 OFFCURVE",
"151 -10 OFFCURVE",
"290 -10 CURVE SMOOTH",
"328 -10 OFFCURVE",
"368 -1 OFFCURVE",
"406 20 CURVE",
"406 110 LINE",
"371 85 OFFCURVE",
"330 74 OFFCURVE",
"290 74 CURVE SMOOTH",
"194 74 OFFCURVE",
"135 144 OFFCURVE",
"135 240 CURVE SMOOTH",
"135 336 OFFCURVE",
"194 406 OFFCURVE",
"290 406 CURVE SMOOTH",
"383 406 OFFCURVE",
"445 359 OFFCURVE",
"445 240 CURVE SMOOTH",
"445 -228 LINE"
);
}
);
width = 581;
}
);
unicode = 0071;
},
{
glyphname = r;
layers = (
{
layerId = master01;
paths = (
{
closed = 1;
nodes = (
"133 0 LINE",
"133 273 LINE SMOOTH",
"133 300 OFFCURVE",
"133 345 OFFCURVE",
"152 369 CURVE",
"175 396 OFFCURVE",
"204 396 OFFCURVE",
"235 396 CURVE SMOOTH",
"341 396 LINE",
"341 480 LINE",
"253 480 LINE SMOOTH",
"192 480 OFFCURVE",
"133 479 OFFCURVE",
"88 432 CURVE SMOOTH",
"45 388 OFFCURVE",
"45 315 OFFCURVE",
"45 273 CURVE SMOOTH",
"45 0 LINE"
);
}
);
width = 346;
}
);
unicode = 0072;
},
{
glyphname = s;
lastChange = "2019-02-11 14:31:16 +0000";
layers = (
{
layerId = master01;
paths = (
{
closed = 1;
nodes = (
"229 0 LINE SMOOTH",
"374 0 OFFCURVE",
"413 64 OFFCURVE",
"413 134 CURVE SMOOTH",
"413 239 OFFCURVE",
"339 251 OFFCURVE",
"253 280 CURVE SMOOTH",
"204 296 OFFCURVE",
"145 306 OFFCURVE",
"145 354 CURVE SMOOTH",
"145 383 OFFCURVE",
"180 396 OFFCURVE",
"216 396 CURVE SMOOTH",
"393 396 LINE",
"393 480 LINE",
"216 480 LINE SMOOTH",
"134 480 OFFCURVE",
"55 441 OFFCURVE",
"55 354 CURVE SMOOTH",
"55 180 OFFCURVE",
"323 224 OFFCURVE",
"323 134 CURVE SMOOTH",
"323 108 OFFCURVE",
"303 84 OFFCURVE",
"229 84 CURVE SMOOTH",
"56 84 LINE",
"56 0 LINE"
);
}
);
width = 453;
}
);
unicode = 0073;
},
{
glyphname = germandbls;
lastChange = "2019-02-11 14:31:16 +0000";
layers = (
{
layerId = master01;
paths = (
{
closed = 1;
nodes = (
"157 0 LINE",
"157 448 LINE SMOOTH",
"157 573 OFFCURVE",
"210 616 OFFCURVE",
"281 616 CURVE SMOOTH",
"324 616 OFFCURVE",
"347 584 OFFCURVE",
"347 552 CURVE SMOOTH",
"347 498 OFFCURVE",
"294 474 OFFCURVE",
"258 440 CURVE SMOOTH",
"228 412 OFFCURVE",
"209 382 OFFCURVE",
"209 350 CURVE SMOOTH",
"209 221 OFFCURVE",
"386 248 OFFCURVE",
"386 154 CURVE SMOOTH",
"386 122 OFFCURVE",
"377 84 OFFCURVE",
"312 84 CURVE SMOOTH",
"219 84 LINE",
"219 0 LINE",
"312 0 LINE SMOOTH",
"457 0 OFFCURVE",
"476 84 OFFCURVE",
"476 154 CURVE SMOOTH",
"476 319 OFFCURVE",
"299 289 OFFCURVE",
"299 350 CURVE SMOOTH",
"299 365 OFFCURVE",
"305 373 OFFCURVE",
"316 382 CURVE SMOOTH",
"377 429 OFFCURVE",
"437 476 OFFCURVE",
"437 552 CURVE SMOOTH",
"437 628 OFFCURVE",
"382 700 OFFCURVE",
"281 700 CURVE SMOOTH",
"158 700 OFFCURVE",
"67 618 OFFCURVE",
"67 480 CURVE",
"39 480 LINE",
"-1 396 LINE",
"67 396 LINE",
"67 0 LINE"
);
}
);
userData = {
com.typemytype.robofont.guides = (
{
angle = 90;
isGlobal = 0;
magnetic = 5;
x = 210;
y = 0;
}
);
};
width = 512;
}
);
unicode = 00DF;
},
{
glyphname = t;
lastChange = "2019-02-11 14:31:16 +0000";
layers = (
{
layerId = master01;
paths = (
{
closed = 1;
nodes = (
"324 84 LINE",
"261 84 OFFCURVE",
"189 91 OFFCURVE",
"189 190 CURVE SMOOTH",
"189 396 LINE",
"324 396 LINE",
"324 480 LINE",
"189 480 LINE",
"189 575 LINE",
"10 396 LINE",
"99 396 LINE",
"99 190 LINE SMOOTH",
"99 51 OFFCURVE",
"175 0 OFFCURVE",
"324 0 CURVE"
);
}
);
width = 359;
}
);
unicode = 0074;
},
{
glyphname = u;
lastChange = "2019-02-11 14:31:16 +0000";
layers = (
{
layerId = master01;
paths = (
{
closed = 1;
nodes = (
"458 0 LINE",
"458 480 LINE",
"370 480 LINE",
"370 84 LINE",
"256 84 LINE SMOOTH",
"152 84 OFFCURVE",
"148 166 OFFCURVE",
"148 210 CURVE SMOOTH",
"148 480 LINE",
"60 480 LINE",
"60 209 LINE SMOOTH",
"60 139 OFFCURVE",
"63 76 OFFCURVE",
"126 33 CURVE SMOOTH",
"171 2 OFFCURVE",
"234 0 OFFCURVE",
"285 0 CURVE SMOOTH"
);
}
);
width = 523;
}
);
unicode = 0075;
},
{
glyphname = v;
layers = (
{
layerId = master01;
paths = (
{
closed = 1;
nodes = (
"348 98 OFFCURVE",
"387 199 OFFCURVE",
"439 480 CURVE",
"347 480 LINE",
"327 355 OFFCURVE",
"295 217 OFFCURVE",
"232 115 CURVE",
"169 217 OFFCURVE",
"137 355 OFFCURVE",
"117 480 CURVE",
"25 480 LINE",
"77 199 OFFCURVE",
"116 98 OFFCURVE",
"232 -11 CURVE"
);
}
);
width = 464;
}
);
unicode = 0076;
},
{
glyphname = w;
lastChange = "2019-02-11 14:31:16 +0000";
layers = (
{
layerId = master01;
paths = (
{
closed = 1;
nodes = (
"303 71 OFFCURVE",
"320 137 OFFCURVE",
"335 276 CURVE",
"345 276 LINE",
"360 137 OFFCURVE",
"377 71 OFFCURVE",
"481 -10 CURVE",
"574 35 OFFCURVE",
"629 159 OFFCURVE",
"638 333 CURVE SMOOTH",
"645 480 LINE",
"556 480 LINE",
"548 337 LINE SMOOTH",
"542 223 OFFCURVE",
"515 141 OFFCURVE",
"483 99 CURVE",
"408 182 OFFCURVE",
"398 327 OFFCURVE",
"388 403 CURVE",
"292 403 LINE",
"282 327 OFFCURVE",
"272 182 OFFCURVE",
"197 99 CURVE",
"165 141 OFFCURVE",
"138 223 OFFCURVE",
"132 337 CURVE SMOOTH",
"124 480 LINE",
"35 480 LINE",
"42 333 LINE SMOOTH",
"51 159 OFFCURVE",
"106 35 OFFCURVE",
"199 -10 CURVE"
);
}
);
userData = {
com.typemytype.robofont.guides = (
{
angle = 0;
isGlobal = 0;
magnetic = 5;
x = 0;
y = 213;
},
{
angle = 90;
isGlobal = 0;
magnetic = 5;
x = 360;
y = 0;
},
{
angle = 90;
isGlobal = 0;
magnetic = 5;
x = 243;
y = 0;
},
{
angle = 90;
isGlobal = 0;
magnetic = 5;
x = 479;
y = 0;
}
);
};
width = 680;
}
);
unicode = 0077;
},
{
glyphname = x;
lastChange = "2019-02-11 14:31:16 +0000";
layers = (
{
layerId = master01;
paths = (
{
closed = 1;
nodes = (
"123 0 LINE",
"123 30 LINE SMOOTH",
"123 103 OFFCURVE",
"158 171 OFFCURVE",
"230 206 CURVE",
"303 173 OFFCURVE",
"337 108 OFFCURVE",
"337 36 CURVE SMOOTH",
"337 0 LINE",
"425 0 LINE",
"425 36 LINE SMOOTH",
"425 149 OFFCURVE",
"358 253 OFFCURVE",
"230 295 CURVE",
"100 252 OFFCURVE",
"35 145 OFFCURVE",
"35 30 CURVE SMOOTH",
"35 0 LINE"
);
},
{
closed = 1;
nodes = (
"358 248 OFFCURVE",
"425 353 OFFCURVE",
"425 466 CURVE SMOOTH",
"425 480 LINE",
"337 480 LINE",
"337 466 LINE SMOOTH",
"337 393 OFFCURVE",
"303 329 OFFCURVE",
"230 295 CURVE",
"158 331 OFFCURVE",
"123 399 OFFCURVE",
"123 472 CURVE SMOOTH",
"123 480 LINE",
"35 480 LINE",
"35 472 LINE SMOOTH",
"35 357 OFFCURVE",
"100 249 OFFCURVE",
"230 206 CURVE"
);
}
);
userData = {
com.typemytype.robofont.guides = (
{
angle = 90;
isGlobal = 0;
magnetic = 5;
x = 425;
y = 0;
}
);
};
width = 465;
}
);
unicode = 0078;
},
{
glyphname = y;
lastChange = "2019-02-11 14:31:16 +0000";
layers = (
{
layerId = master01;
paths = (
{
closed = 1;
nodes = (
"172 -228 LINE SMOOTH",
"362 -228 OFFCURVE",
"443 -140 OFFCURVE",
"443 24 CURVE SMOOTH",
"443 480 LINE",
"355 480 LINE",
"355 84 LINE",
"250 84 LINE SMOOTH",
"159 84 OFFCURVE",
"133 122 OFFCURVE",
"133 229 CURVE SMOOTH",
"133 480 LINE",
"45 480 LINE",
"45 233 LINE SMOOTH",
"45 40 OFFCURVE",
"102 0 OFFCURVE",
"271 0 CURVE SMOOTH",
"355 0 LINE",
"349 -100 OFFCURVE",
"281 -144 OFFCURVE",
"163 -144 CURVE SMOOTH",
"100 -144 LINE",
"100 -228 LINE"
);
}
);
width = 498;
}
);
unicode = 0079;
},
{
glyphname = z;
lastChange = "2019-02-11 14:31:16 +0000";
layers = (
{
layerId = master01;
paths = (
{
closed = 1;
nodes = (
"120 0 LINE",
"120 40 LINE SMOOTH",
"120 186 OFFCURVE",
"384 255 OFFCURVE",
"384 431 CURVE SMOOTH",
"384 480 LINE",
"290 480 LINE",
"290 431 LINE SMOOTH",
"290 300 OFFCURVE",
"35 233 OFFCURVE",
"35 40 CURVE SMOOTH",
"35 0 LINE"
);
},
{
closed = 1;
nodes = (
"391 0 LINE",
"391 88 LINE",
"60 88 LINE",
"60 0 LINE"
);
},
{
closed = 1;
nodes = (
"327 392 LINE",
"327 480 LINE",
"36 480 LINE",
"36 392 LINE"
);
}
);
userData = {
com.typemytype.robofont.guides = (
{
angle = 0;
isGlobal = 0;
magnetic = 5;
x = 0;
y = 431;
}
);
};
width = 426;
}
);
unicode = 007A;
},
{
glyphname = ordfeminine;
lastChange = "2019-02-11 14:31:16 +0000";
layers = (
{
layerId = master01;
paths = (
{
closed = 1;
nodes = (
"311 380 LINE",
"311 576 LINE SMOOTH",
"311 657 OFFCURVE",
"263 700 OFFCURVE",
"177 700 CURVE SMOOTH",
"67 700 LINE",
"67 634 LINE",
"177 634 LINE SMOOTH",
"221 634 OFFCURVE",
"245 614 OFFCURVE",
"245 576 CURVE SMOOTH",
"245 446 LINE",
"163 446 LINE SMOOTH",
"126 446 OFFCURVE",
"105 454 OFFCURVE",
"105 479 CURVE SMOOTH",
"105 511 OFFCURVE",
"130 524 OFFCURVE",
"163 524 CURVE SMOOTH",
"177 524 OFFCURVE",
"191 521 OFFCURVE",
"206 516 CURVE",
"206 571 LINE",
"194 576 OFFCURVE",
"182 579 OFFCURVE",
"163 579 CURVE SMOOTH",
"97 579 OFFCURVE",
"39 548 OFFCURVE",
"39 479 CURVE SMOOTH",
"39 413 OFFCURVE",
"90 380 OFFCURVE",
"163 380 CURVE SMOOTH"
);
}
);
width = 357;
}
);
unicode = 00AA;
},
{
glyphname = ordmasculine;
lastChange = "2019-02-11 14:31:16 +0000";
layers = (
{
layerId = master01;
paths = (
{
closed = 1;
nodes = (
"315 370 OFFCURVE",
"387 445 OFFCURVE",
"387 539 CURVE SMOOTH",
"387 633 OFFCURVE",
"315 709 OFFCURVE",
"221 709 CURVE SMOOTH",
"127 709 OFFCURVE",
"55 633 OFFCURVE",
"55 539 CURVE SMOOTH",
"55 445 OFFCURVE",
"127 370 OFFCURVE",
"221 370 CURVE SMOOTH"
);
},
{
closed = 1;
nodes = (
"169 444 OFFCURVE",
"129 487 OFFCURVE",
"129 539 CURVE SMOOTH",
"129 591 OFFCURVE",
"169 635 OFFCURVE",
"221 635 CURVE SMOOTH",
"273 635 OFFCURVE",
"313 591 OFFCURVE",
"313 539 CURVE SMOOTH",
"313 487 OFFCURVE",
"273 444 OFFCURVE",
"221 444 CURVE SMOOTH"
);
}
);
width = 425;
}
);
unicode = 00BA;
},
{
glyphname = zero;
lastChange = "2019-02-11 14:31:16 +0000";
layers = (
{
layerId = master01;
paths = (
{
closed = 1;
nodes = (
"509 -10 OFFCURVE",
"537 178 OFFCURVE",
"537 353 CURVE SMOOTH",
"537 528 OFFCURVE",
"509 710 OFFCURVE",
"296 710 CURVE SMOOTH",
"83 710 OFFCURVE",
"55 528 OFFCURVE",
"55 353 CURVE SMOOTH",
"55 178 OFFCURVE",
"83 -10 OFFCURVE",
"296 -10 CURVE SMOOTH"
);
},
{
closed = 1;
nodes = (
"186 78 OFFCURVE",
"151 132 OFFCURVE",
"151 353 CURVE SMOOTH",
"151 574 OFFCURVE",
"186 628 OFFCURVE",
"296 628 CURVE SMOOTH",
"406 628 OFFCURVE",
"441 574 OFFCURVE",
"441 353 CURVE SMOOTH",
"441 132 OFFCURVE",
"406 78 OFFCURVE",
"296 78 CURVE SMOOTH"
);
}
);
userData = {
com.typemytype.robofont.guides = (
{
angle = 0;
isGlobal = 0;
magnetic = 5;
x = 0;
y = 353;
},
{
angle = 90;
isGlobal = 0;
magnetic = 5;
x = 296;
y = 0;
}
);
};
width = 592;
}
);
unicode = 0030;
},
{
glyphname = one;
lastChange = "2019-02-11 14:31:16 +0000";
layers = (
{
layerId = master01;
paths = (
{
closed = 1;
nodes = (
"248 0 LINE",
"248 700 LINE",
"154 700 LINE",
"154 0 LINE"
);
},
{
closed = 1;
nodes = (
"219 606 LINE",
"219 700 LINE",
"67 700 LINE",
"25 606 LINE"
);
}
);
width = 318;
}
);
unicode = 0031;
},
{
glyphname = two;
lastChange = "2019-02-11 14:31:16 +0000";
layers = (
{
layerId = master01;
paths = (
{
closed = 1;
nodes = (
"132 0 LINE",
"132 44 LINE SMOOTH",
"132 135 OFFCURVE",
"246 215 OFFCURVE",
"369 311 CURVE",
"436 368 OFFCURVE",
"472 416 OFFCURVE",
"472 511 CURVE",
"371 516 LINE",
"371 456 OFFCURVE",
"349 411 OFFCURVE",
"292 367 CURVE SMOOTH",
"181 281 OFFCURVE",
"42 187 OFFCURVE",
"42 44 CURVE SMOOTH",
"42 0 LINE"
);
},
{
closed = 1;
nodes = (
"466 0 LINE",
"466 94 LINE",
"87 94 LINE",
"87 0 LINE"
);
},
{
closed = 1;
nodes = (
"137 574 OFFCURVE",
"183 618 OFFCURVE",
"251 618 CURVE SMOOTH",
"333 618 OFFCURVE",
"371 570 OFFCURVE",
"371 516 CURVE",
"472 511 LINE",
"472 636 OFFCURVE",
"388 709 OFFCURVE",
"248 709 CURVE SMOOTH",
"135 709 OFFCURVE",
"73 647 OFFCURVE",
"32 572 CURVE",
"106 510 LINE"
);
}
);
userData = {
com.typemytype.robofont.guides = (
{
angle = 90;
isGlobal = 0;
magnetic = 5;
x = 39;
y = 0;
},
{
angle = 90;
isGlobal = 0;
magnetic = 5;
x = 488;
y = 0;
}
);
};
width = 532;
}
);
unicode = 0032;
},
{
glyphname = three;
lastChange = "2019-02-11 14:31:16 +0000";
layers = (
{
layerId = master01;
paths = (
{
closed = 1;
nodes = (
"398 -10 OFFCURVE",
"494 73 OFFCURVE",
"494 220 CURVE",
"392 220 LINE",
"392 116 OFFCURVE",
"337 78 OFFCURVE",
"255 78 CURVE SMOOTH",
"173 78 OFFCURVE",
"120 125 OFFCURVE",
"106 200 CURVE",
"32 127 LINE",
"54 37 OFFCURVE",
"135 -10 OFFCURVE",
"258 -10 CURVE SMOOTH"
);
},
{
closed = 1;
nodes = (
"494 220 LINE",
"494 355 OFFCURVE",
"406 441 OFFCURVE",
"237 441 CURVE SMOOTH",
"181 441 LINE",
"181 347 LINE",
"237 347 LINE SMOOTH",
"332 347 OFFCURVE",
"392 311 OFFCURVE",
"392 220 CURVE"
);
},
{
closed = 1;
nodes = (
"334 414 OFFCURVE",
"451 492 OFFCURVE",
"451 679 CURVE SMOOTH",
"451 700 LINE",
"371 700 LINE",
"371 688 LINE SMOOTH",
"371 570 OFFCURVE",
"288 474 OFFCURVE",
"181 441 CURVE",
"181 377 LINE"
);
},
{
closed = 1;
nodes = (
"395 606 LINE",
"395 700 LINE",
"65 700 LINE",
"65 606 LINE"
);
}
);
width = 532;
}
);
unicode = 0033;
},
{
glyphname = four;
lastChange = "2019-02-11 14:31:16 +0000";
layers = (
{
layerId = master01;
paths = (
{
closed = 1;
nodes = (
"137 159 LINE",
"137 203 LINE SMOOTH",
"137 281 OFFCURVE",
"159 334 OFFCURVE",
"236 440 CURVE",
"357 580 LINE",
"421 700 LINE",
"347 700 LINE",
"165 483 LINE SMOOTH",
"86 382 OFFCURVE",
"45 296 OFFCURVE",
"45 203 CURVE SMOOTH",
"45 159 LINE"
);
},
{
closed = 1;
nodes = (
"521 159 LINE",
"521 247 LINE",
"56 247 LINE",
"56 159 LINE"
);
},
{
closed = 1;
nodes = (
"441 0 LINE",
"441 700 LINE",
"347 700 LINE",
"347 0 LINE"
);
}
);
width = 566;
}
);
unicode = 0034;
},
{
glyphname = five;
lastChange = "2019-02-11 14:31:16 +0000";
layers = (
{
layerId = master01;
paths = (
{
closed = 1;
nodes = (
"170 367 LINE",
"170 606 LINE",
"466 606 LINE",
"466 700 LINE",
"82 700 LINE",
"82 367 LINE"
);
},
{
closed = 1;
nodes = (
"398 -10 OFFCURVE",
"494 78 OFFCURVE",
"494 225 CURVE {name = hr01;}",
"392 225 LINE",
"392 121 OFFCURVE",
"337 78 OFFCURVE",
"255 78 CURVE SMOOTH",
"176 78 OFFCURVE",
"144 110 OFFCURVE",
"111 170 CURVE",
"32 127 LINE",
"54 37 OFFCURVE",
"135 -10 OFFCURVE",
"258 -10 CURVE SMOOTH"
);
},
{
closed = 1;
nodes = (
"494 225 LINE",
"494 372 OFFCURVE",
"412 455 OFFCURVE",
"257 455 CURVE SMOOTH",
"81 455 LINE",
"81 367 LINE",
"257 367 LINE SMOOTH",
"340 367 OFFCURVE",
"392 330 OFFCURVE",
"392 225 CURVE"
);
}
);
width = 532;
}
);
unicode = 0035;
},
{
glyphname = six;
layers = (
{
layerId = master01;
paths = (
{
closed = 1;
nodes = (
"427 -10 OFFCURVE",
"514 78 OFFCURVE",
"514 225 CURVE",
"415 225 LINE",
"415 121 OFFCURVE",
"366 74 OFFCURVE",
"296 74 CURVE SMOOTH",
"189 74 OFFCURVE",
"140 152 OFFCURVE",
"140 350 CURVE SMOOTH",
"140 511 OFFCURVE",
"240 612 OFFCURVE",
"378 612 CURVE SMOOTH",
"448 612 LINE",
"448 700 LINE",
"390 700 LINE SMOOTH",
"189 700 OFFCURVE",
"45 563 OFFCURVE",
"45 350 CURVE SMOOTH",
"45 99 OFFCURVE",
"121 -10 OFFCURVE",
"299 -10 CURVE SMOOTH"
);
},
{
closed = 1;
nodes = (
"514 225 LINE",
"512 362 OFFCURVE",
"434 444 OFFCURVE",
"308 444 CURVE SMOOTH",
"276 444 OFFCURVE",
"242 438 OFFCURVE",
"210 426 CURVE",
"210 345 LINE",
"243 354 OFFCURVE",
"274 357 OFFCURVE",
"302 357 CURVE SMOOTH",
"377 357 OFFCURVE",
"410 313 OFFCURVE",
"415 225 CURVE"
);
}
);
width = 569;
}
);
unicode = 0036;
},
{
glyphname = seven;
lastChange = "2019-02-11 14:31:16 +0000";
layers = (
{
layerId = master01;
paths = (
{
closed = 1;
nodes = (
"213 0 LINE",
"213 44 LINE SMOOTH",
"213 339 OFFCURVE",
"414 403 OFFCURVE",
"414 679 CURVE SMOOTH",
"414 700 LINE",
"324 700 LINE",
"324 688 LINE SMOOTH",
"324 431 OFFCURVE",
"115 358 OFFCURVE",
"115 44 CURVE SMOOTH",
"115 0 LINE"
);
},
{
closed = 1;
nodes = (
"386 612 LINE",
"386 700 LINE",
"15 700 LINE",
"15 612 LINE"
);
}
);
width = 449;
}
);
unicode = 0037;
},
{
glyphname = eight;
lastChange = "2019-02-11 14:31:16 +0000";
layers = (
{
layerId = master01;
paths = (
{
closed = 1;
nodes = (
"437 -10 OFFCURVE",
"503 82 OFFCURVE",
"503 184 CURVE SMOOTH",
"503 275 OFFCURVE",
"466 338 OFFCURVE",
"394 363 CURVE",
"394 367 LINE",
"456 396 OFFCURVE",
"488 452 OFFCURVE",
"488 522 CURVE SMOOTH",
"488 617 OFFCURVE",
"426 710 OFFCURVE",
"279 710 CURVE SMOOTH",
"132 710 OFFCURVE",
"70 617 OFFCURVE",
"70 522 CURVE SMOOTH",
"70 452 OFFCURVE",
"102 396 OFFCURVE",
"164 367 CURVE",
"164 363 LINE",
"92 338 OFFCURVE",
"55 275 OFFCURVE",
"55 184 CURVE SMOOTH",
"55 82 OFFCURVE",
"121 -10 OFFCURVE",
"279 -10 CURVE SMOOTH"
);
},
{
closed = 1;
nodes = (
"190 68 OFFCURVE",
"152 125 OFFCURVE",
"152 196 CURVE SMOOTH",
"152 277 OFFCURVE",
"194 328 OFFCURVE",
"279 328 CURVE SMOOTH",
"362 328 OFFCURVE",
"406 277 OFFCURVE",
"406 196 CURVE SMOOTH",
"406 125 OFFCURVE",
"377 68 OFFCURVE",
"279 68 CURVE SMOOTH"
);
},
{
closed = 1;
nodes = (
"216 396 OFFCURVE",
"164 434 OFFCURVE",
"164 510 CURVE SMOOTH",
"164 571 OFFCURVE",
"191 632 OFFCURVE",
"279 632 CURVE SMOOTH",
"367 632 OFFCURVE",
"394 571 OFFCURVE",
"394 510 CURVE SMOOTH",
"394 434 OFFCURVE",
"342 396 OFFCURVE",
"279 396 CURVE SMOOTH"
);
}
);
userData = {
com.typemytype.robofont.guides = (
{
angle = 90;
isGlobal = 0;
magnetic = 5;
x = 279;
y = 0;
}
);
};
width = 558;
}
);
unicode = 0038;
},
{
glyphname = onesuperior;
lastChange = "2019-02-11 14:31:16 +0000";
layers = (
{
layerId = master01;
paths = (
{
closed = 1;
nodes = (
"190 380 LINE",
"190 700 LINE",
"114 700 LINE",
"114 380 LINE"
);
},
{
closed = 1;
nodes = (
"174 637 LINE",
"174 700 LINE",
"74 700 LINE",
"55 637 LINE"
);
}
);
width = 245;
}
);
unicode = 00B9;
},
{
glyphname = twosuperior;
lastChange = "2019-02-11 14:31:16 +0000";
layers = (
{
layerId = master01;
paths = (
{
closed = 1;
nodes = (
"105 380 LINE",
"105 404 LINE SMOOTH",
"105 436 OFFCURVE",
"132 447 OFFCURVE",
"198 512 CURVE SMOOTH",
"239 552 OFFCURVE",
"251 571 OFFCURVE",
"251 607 CURVE SMOOTH",
"251 666 OFFCURVE",
"215 710 OFFCURVE",
"149 710 CURVE SMOOTH",
"88 710 OFFCURVE",
"54 682 OFFCURVE",
"32 647 CURVE",
"88 614 LINE",
"100 639 OFFCURVE",
"121 651 OFFCURVE",
"145 651 CURVE SMOOTH",
"175 651 OFFCURVE",
"186 630 OFFCURVE",
"186 609 CURVE SMOOTH",
"186 584 OFFCURVE",
"184 573 OFFCURVE",
"156 548 CURVE SMOOTH",
"87 486 OFFCURVE",
"45 452 OFFCURVE",
"45 400 CURVE SMOOTH",
"45 380 LINE"
);
},
{
closed = 1;
nodes = (
"258 380 LINE",
"258 443 LINE",
"68 443 LINE",
"68 380 LINE"
);
}
);
userData = {
com.typemytype.robofont.guides = (
{
angle = 0;
isGlobal = 0;
magnetic = 5;
x = 0;
y = 435;
}
);
};
width = 291;
}
);
unicode = 00B2;
},
{
glyphname = threesuperior;
lastChange = "2019-02-11 14:31:16 +0000";
layers = (
{
layerId = master01;
paths = (
{
closed = 1;
nodes = (
"199 369 OFFCURVE",
"254 408 OFFCURVE",
"254 476 CURVE",
"190 476 LINE",
"190 444 OFFCURVE",
"169 426 OFFCURVE",
"133 426 CURVE SMOOTH",
"105 426 OFFCURVE",
"82 444 OFFCURVE",
"75 467 CURVE",
"22 441 LINE",
"33 399 OFFCURVE",
"77 369 OFFCURVE",
"134 369 CURVE SMOOTH"
);
},
{
closed = 1;
nodes = (
"254 476 LINE",
"254 544 OFFCURVE",
"208 579 OFFCURVE",
"125 579 CURVE SMOOTH",
"99 579 LINE",
"99 528 LINE",
"125 528 LINE SMOOTH",
"159 528 OFFCURVE",
"190 519 OFFCURVE",
"190 476 CURVE"
);
},
{
closed = 1;
nodes = (
"169 549 OFFCURVE",
"239 603 OFFCURVE",
"239 690 CURVE SMOOTH",
"239 700 LINE",
"187 700 LINE",
"187 694 LINE SMOOTH",
"187 639 OFFCURVE",
"148 595 OFFCURVE",
"99 579 CURVE",
"99 532 LINE"
);
},
{
closed = 1;
nodes = (
"198 637 LINE",
"198 700 LINE",
"44 700 LINE",
"44 637 LINE"
);
}
);
width = 282;
}
);
unicode = 00B3;
},
{
glyphname = foursuperior;
lastChange = "2019-02-11 14:31:16 +0000";
layers = (
{
layerId = master01;
paths = (
{
closed = 1;
nodes = (
"88 452 LINE",
"88 472 LINE SMOOTH",
"88 507 OFFCURVE",
"100 528 OFFCURVE",
"139 573 CURVE",
"188 644 LINE",
"188 700 LINE",
"174 700 LINE",
"88 596 LINE SMOOTH",
"51 551 OFFCURVE",
"21 514 OFFCURVE",
"21 472 CURVE SMOOTH",
"21 452 LINE"
);
},
{
closed = 1;
nodes = (
"281 452 LINE",
"281 503 LINE",
"46 503 LINE",
"46 452 LINE"
);
},
{
closed = 1;
nodes = (
"240 380 LINE",
"240 700 LINE",
"174 700 LINE",
"174 380 LINE"
);
}
);
width = 306;
}
);
unicode = 2074;
},
{
glyphname = fraction;
lastChange = "2019-02-11 14:31:16 +0000";
layers = (
{
layerId = master01;
paths = (
{
closed = 1;
nodes = (
"43 0 LINE",
"372 700 LINE",
"291 700 LINE",
"-40 0 LINE"
);
}
);
width = 322;
}
);
unicode = 2044;
},
{
glyphname = period;
lastChange = "2019-02-11 14:31:16 +0000";
layers = (
{
layerId = master01;
paths = (
{
closed = 1;
nodes = (
"107 -10 OFFCURVE",
"134 17 OFFCURVE",
"134 52 CURVE SMOOTH",
"134 87 OFFCURVE",
"107 114 OFFCURVE",
"72 114 CURVE SMOOTH",
"37 114 OFFCURVE",
"10 87 OFFCURVE",
"10 52 CURVE SMOOTH",
"10 17 OFFCURVE",
"37 -10 OFFCURVE",
"72 -10 CURVE SMOOTH"
);
}
);
width = 169;
}
);
unicode = 002E;
},
{
glyphname = comma;
layers = (
{
layerId = master01;
paths = (
{
closed = 1;
nodes = (
"136 -102 OFFCURVE",
"181 -30 OFFCURVE",
"181 84 CURVE",
"50 84 LINE",
"10 0 LINE",
"78 0 LINE",
"73 -38 OFFCURVE",
"61 -70 OFFCURVE",
"34 -123 CURVE",
"84 -155 LINE"
);
}
);
width = 216;
}
);
unicode = 002C;
},
{
glyphname = exclam;
lastChange = "2019-02-11 14:31:16 +0000";
layers = (
{
layerId = master01;
paths = (
{
closed = 1;
nodes = (
"181 181 LINE",
"181 501 OFFCURVE",
"194 626 OFFCURVE",
"194 659 CURVE SMOOTH",
"194 694 OFFCURVE",
"172 711 OFFCURVE",
"137 711 CURVE SMOOTH",
"102 711 OFFCURVE",
"80 694 OFFCURVE",
"80 659 CURVE SMOOTH",
"80 626 OFFCURVE",
"97 501 OFFCURVE",
"97 181 CURVE"
);
},
{
closed = 1;
nodes = (
"172 -10 OFFCURVE",
"199 17 OFFCURVE",
"199 52 CURVE SMOOTH",
"199 87 OFFCURVE",
"172 114 OFFCURVE",
"137 114 CURVE SMOOTH",
"102 114 OFFCURVE",
"75 87 OFFCURVE",
"75 52 CURVE SMOOTH",
"75 17 OFFCURVE",
"102 -10 OFFCURVE",
"137 -10 CURVE SMOOTH"
);
}
);
width = 274;
}
);
unicode = 0021;
},
{
glyphname = exclamdown;
lastChange = "2019-02-11 14:31:16 +0000";
layers = (
{
layerId = master01;
paths = (
{
closed = 1;
nodes = (
"172 -240 OFFCURVE",
"194 -223 OFFCURVE",
"194 -188 CURVE SMOOTH",
"194 -155 OFFCURVE",
"181 -30 OFFCURVE",
"181 290 CURVE",
"97 290 LINE",
"97 -30 OFFCURVE",
"80 -155 OFFCURVE",
"80 -188 CURVE SMOOTH",
"80 -223 OFFCURVE",
"102 -240 OFFCURVE",
"137 -240 CURVE SMOOTH"
);
},
{
closed = 1;
nodes = (
"172 357 OFFCURVE",
"199 384 OFFCURVE",
"199 419 CURVE SMOOTH",
"199 454 OFFCURVE",
"172 481 OFFCURVE",
"137 481 CURVE SMOOTH",
"102 481 OFFCURVE",
"75 454 OFFCURVE",
"75 419 CURVE SMOOTH",
"75 384 OFFCURVE",
"102 357 OFFCURVE",
"137 357 CURVE SMOOTH"
);
}
);
width = 274;
}
);
unicode = 00A1;
},
{
glyphname = question;
lastChange = "2019-02-11 14:31:16 +0000";
layers = (
{
layerId = master01;
paths = (
{
closed = 1;
nodes = (
"304 201 LINE",
"304 285 OFFCURVE",
"453 366 OFFCURVE",
"453 497 CURVE SMOOTH",
"453 621 OFFCURVE",
"359 679 OFFCURVE",
"264 679 CURVE SMOOTH",
"165 679 OFFCURVE",
"75 614 OFFCURVE",
"75 503 CURVE SMOOTH",
"75 461 OFFCURVE",
"82 409 OFFCURVE",
"135 371 CURVE",
"193 430 LINE",
"171 451 OFFCURVE",
"162 479 OFFCURVE",
"162 499 CURVE SMOOTH",
"162 561 OFFCURVE",
"209 593 OFFCURVE",
"258 593 CURVE SMOOTH",
"309 593 OFFCURVE",
"361 557 OFFCURVE",
"361 486 CURVE SMOOTH",
"361 425 OFFCURVE",
"296 359 OFFCURVE",
"244 294 CURVE SMOOTH",
"221 265 OFFCURVE",
"207 246 OFFCURVE",
"207 201 CURVE"
);
},
{
closed = 1;
nodes = (
"293 -10 OFFCURVE",
"320 17 OFFCURVE",
"320 52 CURVE SMOOTH",
"320 87 OFFCURVE",
"293 114 OFFCURVE",
"258 114 CURVE SMOOTH",
"223 114 OFFCURVE",
"196 87 OFFCURVE",
"196 52 CURVE SMOOTH",
"196 17 OFFCURVE",
"223 -10 OFFCURVE",
"258 -10 CURVE SMOOTH"
);
}
);
width = 528;
}
);
unicode = 003F;
},
{
glyphname = questiondown;
lastChange = "2019-02-11 14:31:16 +0000";
layers = (
{
layerId = master01;
paths = (
{
closed = 1;
nodes = (
"363 -210 OFFCURVE",
"453 -145 OFFCURVE",
"453 -34 CURVE SMOOTH",
"453 8 OFFCURVE",
"446 60 OFFCURVE",
"393 98 CURVE",
"335 39 LINE",
"357 18 OFFCURVE",
"366 -10 OFFCURVE",
"366 -30 CURVE SMOOTH",
"366 -92 OFFCURVE",
"319 -124 OFFCURVE",
"270 -124 CURVE SMOOTH",
"219 -124 OFFCURVE",
"167 -88 OFFCURVE",
"167 -17 CURVE SMOOTH",
"167 44 OFFCURVE",
"232 110 OFFCURVE",
"284 175 CURVE SMOOTH",
"307 204 OFFCURVE",
"321 223 OFFCURVE",
"321 268 CURVE",
"224 268 LINE",
"224 184 OFFCURVE",
"75 103 OFFCURVE",
"75 -28 CURVE SMOOTH",
"75 -152 OFFCURVE",
"169 -210 OFFCURVE",
"264 -210 CURVE SMOOTH"
);
},
{
closed = 1;
nodes = (
"305 365 OFFCURVE",
"332 392 OFFCURVE",
"332 427 CURVE SMOOTH",
"332 462 OFFCURVE",
"305 489 OFFCURVE",
"270 489 CURVE SMOOTH",
"235 489 OFFCURVE",
"208 462 OFFCURVE",
"208 427 CURVE SMOOTH",
"208 392 OFFCURVE",
"235 365 OFFCURVE",
"270 365 CURVE SMOOTH"
);
}
);
width = 528;
}
);
unicode = 00BF;
},
{
glyphname = bullet;
lastChange = "2019-02-11 14:31:16 +0000";
layers = (
{
layerId = master01;
paths = (
{
closed = 1;
nodes = (
"280 219 OFFCURVE",
"337 276 OFFCURVE",
"337 350 CURVE SMOOTH",
"337 424 OFFCURVE",
"280 481 OFFCURVE",
"206 481 CURVE SMOOTH",
"132 481 OFFCURVE",
"75 424 OFFCURVE",
"75 350 CURVE SMOOTH",
"75 276 OFFCURVE",
"132 219 OFFCURVE",
"206 219 CURVE SMOOTH"
);
}
);
width = 412;
}
);
unicode = 2022;
},
{
glyphname = asterisk;
lastChange = "2019-02-11 14:31:16 +0000";
layers = (
{
layerId = master01;
paths = (
{
closed = 1;
nodes = (
"271 314 LINE",
"259 454 LINE",
"383 374 LINE",
"421 436 LINE",
"289 507 LINE",
"421 576 LINE",
"383 638 LINE",
"259 554 LINE",
"271 700 LINE",
"195 700 LINE",
"207 554 LINE",
"83 638 LINE",
"45 576 LINE",
"177 507 LINE",
"45 436 LINE",
"83 374 LINE",
"207 454 LINE",
"195 314 LINE"
);
}
);
width = 466;
}
);
unicode = 002A;
},
{
glyphname = numbersign;
lastChange = "2019-02-11 14:31:16 +0000";
layers = (
{
layerId = master01;
paths = (
{
closed = 1;
nodes = (
"197 0 LINE",
"227 214 LINE",
"346 214 LINE",
"316 0 LINE",
"388 0 LINE",
"418 214 LINE",
"515 214 LINE",
"518 278 LINE",
"427 278 LINE",
"447 422 LINE",
"544 422 LINE",
"547 486 LINE",
"456 486 LINE",
"486 700 LINE",
"414 700 LINE",
"384 486 LINE",
"265 486 LINE",
"295 700 LINE",
"223 700 LINE",
"193 486 LINE",
"87 486 LINE",
"84 422 LINE",
"184 422 LINE",
"164 278 LINE",
"58 278 LINE",
"55 214 LINE",
"155 214 LINE",
"125 0 LINE"
);
},
{
closed = 1;
nodes = (
"256 422 LINE",
"375 422 LINE",
"355 278 LINE",
"236 278 LINE"
);
}
);
width = 602;
}
);
unicode = 0023;
},
{
glyphname = slash;
lastChange = "2019-02-11 14:31:16 +0000";
layers = (
{
layerId = master01;
paths = (
{
closed = 1;
nodes = (
"58 -10 LINE",
"382 710 LINE",
"294 710 LINE",
"-30 -10 LINE"
);
}
);
width = 352;
}
);
unicode = 002F;
},
{
glyphname = backslash;
lastChange = "2019-02-11 14:31:16 +0000";
layers = (
{
layerId = master01;
paths = (
{
closed = 1;
nodes = (
"382 -10 LINE",
"58 710 LINE",
"-30 710 LINE",
"294 -10 LINE"
);
}
);
width = 352;
}
);
unicode = 005C;
},
{
glyphname = parenleft;
lastChange = "2019-02-11 14:31:16 +0000";
layers = (
{
layerId = master01;
paths = (
{
closed = 1;
nodes = (
"341 -78 LINE",
"277 -27 OFFCURVE",
"163 88 OFFCURVE",
"163 320 CURVE SMOOTH",
"163 531 OFFCURVE",
"261 647 OFFCURVE",
"341 708 CURVE",
"291 762 LINE",
"126 639 OFFCURVE",
"75 456 OFFCURVE",
"75 315 CURVE SMOOTH",
"75 170 OFFCURVE",
"126 -12 OFFCURVE",
"295 -138 CURVE"
);
}
);
width = 386;
}
);
unicode = 0028;
},
{
glyphname = parenright;
lastChange = "2019-02-11 14:31:16 +0000";
layers = (
{
layerId = master01;
paths = (
{
closed = 1;
nodes = (
"260 -15 OFFCURVE",
"311 168 OFFCURVE",
"311 309 CURVE SMOOTH",
"311 453 OFFCURVE",
"258 637 OFFCURVE",
"91 762 CURVE",
"45 702 LINE",
"109 651 OFFCURVE",
"223 538 OFFCURVE",
"223 304 CURVE SMOOTH",
"223 93 OFFCURVE",
"125 -20 OFFCURVE",
"45 -84 CURVE",
"95 -138 LINE"
);
}
);
width = 386;
}
);
unicode = 0029;
},
{
glyphname = braceleft;
lastChange = "2019-02-11 14:31:16 +0000";
layers = (
{
layerId = master01;
paths = (
{
closed = 1;
nodes = (
"333 -126 LINE",
"333 -80 LINE",
"287 -80 LINE SMOOTH",
"273 -80 OFFCURVE",
"242 -79 OFFCURVE",
"242 0 CURVE SMOOTH",
"242 185 LINE SMOOTH",
"242 256 OFFCURVE",
"208 299 OFFCURVE",
"163 312 CURVE",
"232 344 OFFCURVE",
"242 398 OFFCURVE",
"242 438 CURVE SMOOTH",
"242 624 LINE SMOOTH",
"242 703 OFFCURVE",
"269 704 OFFCURVE",
"290 704 CURVE SMOOTH",
"333 704 LINE",
"333 750 LINE",
"266 750 LINE SMOOTH",
"199 750 OFFCURVE",
"154 707 OFFCURVE",
"154 628 CURVE SMOOTH",
"154 455 LINE SMOOTH",
"154 398 OFFCURVE",
"128 347 OFFCURVE",
"75 342 CURVE",
"75 282 LINE",
"128 275 OFFCURVE",
"154 223 OFFCURVE",
"154 170 CURVE SMOOTH",
"154 -4 LINE SMOOTH",
"154 -69 OFFCURVE",
"195 -126 OFFCURVE",
"254 -126 CURVE SMOOTH"
);
}
);
width = 378;
}
);
unicode = 007B;
},
{
glyphname = braceright;
lastChange = "2019-02-11 14:31:16 +0000";
layers = (
{
layerId = master01;
paths = (
{
closed = 1;
nodes = (
"124 -126 LINE SMOOTH",
"183 -126 OFFCURVE",
"224 -69 OFFCURVE",
"224 -4 CURVE SMOOTH",
"224 173 LINE SMOOTH",
"224 225 OFFCURVE",
"250 277 OFFCURVE",
"303 282 CURVE",
"303 342 LINE",
"250 349 OFFCURVE",
"224 401 OFFCURVE",
"224 454 CURVE SMOOTH",
"224 628 LINE SMOOTH",
"224 693 OFFCURVE",
"183 750 OFFCURVE",
"124 750 CURVE SMOOTH",
"45 750 LINE",
"45 704 LINE",
"91 704 LINE SMOOTH",
"105 704 OFFCURVE",
"136 703 OFFCURVE",
"136 624 CURVE SMOOTH",
"136 447 LINE SMOOTH",
"136 427 OFFCURVE",
"135 336 OFFCURVE",
"215 312 CURVE",
"145 280 OFFCURVE",
"136 228 OFFCURVE",
"136 181 CURVE SMOOTH",
"136 0 LINE SMOOTH",
"136 -79 OFFCURVE",
"105 -80 OFFCURVE",
"91 -80 CURVE SMOOTH",
"45 -80 LINE",
"45 -126 LINE"
);
}
);
width = 407;
}
);
unicode = 007D;
},
{
glyphname = bracketleft;
lastChange = "2019-02-11 14:31:16 +0000";
layers = (
{
layerId = master01;
paths = (
{
closed = 1;
nodes = (
"249 -126 LINE",
"249 -66 LINE",
"165 -66 LINE",
"165 690 LINE",
"249 690 LINE",
"249 750 LINE",
"75 750 LINE",
"75 -126 LINE"
);
}
);
width = 294;
}
);
unicode = 005B;
},
{
glyphname = bracketright;
lastChange = "2019-02-11 14:31:16 +0000";
layers = (
{
layerId = master01;
paths = (
{
closed = 1;
nodes = (
"219 -126 LINE",
"219 750 LINE",
"45 750 LINE",
"45 690 LINE",
"129 690 LINE",
"129 -66 LINE",
"45 -66 LINE",
"45 -126 LINE"
);
}
);
width = 294;
}
);
unicode = 005D;
},
{
glyphname = hyphen;
lastChange = "2019-02-11 14:31:16 +0000";
layers = (
{
layerId = master01;
paths = (
{
closed = 1;
nodes = (
"257 200 LINE",
"257 280 LINE",
"33 280 LINE",
"33 200 LINE"
);
}
);
width = 290;
}
);
unicode = 002D;
},
{
glyphname = softhyphen;
lastChange = "2019-02-11 14:31:16 +0000";
layers = (
{
layerId = master01;
paths = (
{
closed = 1;
nodes = (
"257 200 LINE",
"257 280 LINE",
"33 280 LINE",
"33 200 LINE"
);
}
);
width = 290;
}
);
unicode = 00AD;
},
{
glyphname = endash;
lastChange = "2019-02-11 14:31:16 +0000";
layers = (
{
layerId = master01;
paths = (
{
closed = 1;
nodes = (
"533 208 LINE",
"533 282 LINE",
"33 282 LINE",
"33 208 LINE"
);
}
);
width = 566;
}
);
unicode = 2013;
},
{
glyphname = emdash;
lastChange = "2019-02-11 14:31:16 +0000";
layers = (
{
layerId = master01;
paths = (
{
closed = 1;
nodes = (
"683 208 LINE",
"683 282 LINE",
"33 282 LINE",
"33 208 LINE"
);
}
);
width = 716;
}
);
unicode = 2014;
},
{
glyphname = underscore;
lastChange = "2019-02-11 14:31:16 +0000";
layers = (
{
layerId = master01;
paths = (
{
closed = 1;
nodes = (
"533 -125 LINE",
"533 -55 LINE",
"33 -55 LINE",
"33 -125 LINE"
);
}
);
width = 566;
}
);
unicode = 005F;
},
{
glyphname = guillemetleft;
lastChange = "2019-02-11 14:31:16 +0000";
layers = (
{
layerId = master01;
paths = (
{
closed = 1;
nodes = (
"466 86 LINE",
"341 240 LINE",
"466 394 LINE",
"370 394 LINE",
"245 240 LINE",
"370 86 LINE"
);
},
{
closed = 1;
nodes = (
"276 86 LINE",
"151 240 LINE",
"276 394 LINE",
"180 394 LINE",
"55 240 LINE",
"180 86 LINE"
);
}
);
width = 481;
}
);
unicode = 00AB;
},
{
glyphname = guillemetright;
lastChange = "2019-02-11 14:31:16 +0000";
layers = (
{
layerId = master01;
paths = (
{
closed = 1;
nodes = (
"301 86 LINE",
"426 240 LINE",
"301 394 LINE",
"205 394 LINE",
"330 240 LINE",
"205 86 LINE"
);
},
{
closed = 1;
nodes = (
"111 86 LINE",
"236 240 LINE",
"111 394 LINE",
"15 394 LINE",
"140 240 LINE",
"15 86 LINE"
);
}
);
width = 481;
}
);
unicode = 00BB;
},
{
glyphname = guilsinglleft;
lastChange = "2019-02-11 14:31:16 +0000";
layers = (
{
layerId = master01;
paths = (
{
closed = 1;
nodes = (
"276 86 LINE",
"151 240 LINE",
"276 394 LINE",
"180 394 LINE",
"55 240 LINE",
"180 86 LINE"
);
}
);
width = 291;
}
);
unicode = 2039;
},
{
glyphname = guilsinglright;
lastChange = "2019-02-11 14:31:16 +0000";
layers = (
{
layerId = master01;
paths = (
{
closed = 1;
nodes = (
"111 86 LINE",
"236 240 LINE",
"111 394 LINE",
"15 394 LINE",
"140 240 LINE",
"15 86 LINE"
);
}
);
width = 291;
}
);
unicode = 203A;
},
{
glyphname = quotesingle;
lastChange = "2019-02-11 14:31:16 +0000";
layers = (
{
layerId = master01;
paths = (
{
closed = 1;
nodes = (
"113 480 LINE",
"123 700 LINE",
"35 700 LINE",
"45 480 LINE"
);
}
);
width = 158;
}
);
unicode = 0027;
},
{
glyphname = .notdef;
lastChange = "2019-02-11 14:31:16 +0000";
layers = (
{
layerId = master01;
paths = (
{
closed = 1;
nodes = (
"456 0 LINE",
"456 512 LINE",
"56 512 LINE",
"56 0 LINE"
);
},
{
closed = 1;
nodes = (
"116 442 LINE",
"396 442 LINE",
"396 70 LINE",
"116 70 LINE"
);
}
);
width = 512;
}
);
},
{
glyphname = cent;
lastChange = "2019-02-11 14:31:16 +0000";
layers = (
{
layerId = master01;
paths = (
{
closed = 1;
nodes = (
"305 -100 LINE",
"305 -9 LINE",
"359 -6 OFFCURVE",
"408 14 OFFCURVE",
"448 46 CURVE",
"388 105 LINE",
"365 87 OFFCURVE",
"337 77 OFFCURVE",
"305 74 CURVE",
"305 405 LINE",
"338 403 OFFCURVE",
"366 391 OFFCURVE",
"389 374 CURVE",
"448 434 LINE",
"408 466 OFFCURVE",
"359 486 OFFCURVE",
"305 489 CURVE",
"305 600 LINE",
"225 600 LINE",
"225 481 LINE",
"119 453 OFFCURVE",
"45 356 OFFCURVE",
"45 240 CURVE SMOOTH",
"45 123 OFFCURVE",
"119 27 OFFCURVE",
"225 -1 CURVE",
"225 -100 LINE"
);
},
{
closed = 1;
nodes = (
"171 111 OFFCURVE",
"140 167 OFFCURVE",
"140 240 CURVE SMOOTH",
"140 313 OFFCURVE",
"171 369 OFFCURVE",
"225 393 CURVE",
"225 87 LINE"
);
}
);
width = 473;
}
);
unicode = 00A2;
},
{
glyphname = currency;
lastChange = "2019-02-11 14:31:16 +0000";
layers = (
{
layerId = master01;
paths = (
{
closed = 1;
nodes = (
"176 193 LINE",
"221 153 OFFCURVE",
"268 149 OFFCURVE",
"297 149 CURVE SMOOTH",
"326 149 OFFCURVE",
"373 153 OFFCURVE",
"418 193 CURVE",
"463 145 LINE",
"502 184 LINE",
"457 231 LINE",
"489 270 OFFCURVE",
"498 312 OFFCURVE",
"498 350 CURVE SMOOTH",
"498 388 OFFCURVE",
"489 430 OFFCURVE",
"457 469 CURVE",
"502 516 LINE",
"463 555 LINE",
"418 507 LINE",
"373 547 OFFCURVE",
"326 551 OFFCURVE",
"297 551 CURVE SMOOTH",
"268 551 OFFCURVE",
"221 547 OFFCURVE",
"176 507 CURVE",
"131 555 LINE",
"92 516 LINE",
"137 469 LINE",
"105 430 OFFCURVE",
"96 388 OFFCURVE",
"96 350 CURVE SMOOTH",
"96 312 OFFCURVE",
"105 270 OFFCURVE",
"137 231 CURVE",
"92 184 LINE",
"131 145 LINE"
);
},
{
closed = 1;
nodes = (
"230 225 OFFCURVE",
"176 282 OFFCURVE",
"176 350 CURVE SMOOTH",
"176 418 OFFCURVE",
"230 475 OFFCURVE",
"297 475 CURVE SMOOTH",
"364 475 OFFCURVE",
"418 418 OFFCURVE",
"418 350 CURVE SMOOTH",
"418 282 OFFCURVE",
"364 225 OFFCURVE",
"297 225 CURVE SMOOTH"
);
}
);
width = 595;
}
);
unicode = 00A4;
},
{
glyphname = dollar;
lastChange = "2019-02-11 14:31:16 +0000";
layers = (
{
layerId = master01;
paths = (
{
closed = 1;
nodes = (
"291 -60 LINE",
"291 5 LINE",
"301 7 OFFCURVE",
"311 10 OFFCURVE",
"321 13 CURVE SMOOTH",
"390 34 OFFCURVE",
"466 96 OFFCURVE",
"464 199 CURVE SMOOTH",
"464 259 OFFCURVE",
"448 306 OFFCURVE",
"416 335 CURVE SMOOTH",
"384 364 OFFCURVE",
"355 380 OFFCURVE",
"310 397 CURVE SMOOTH",
"291 404 LINE",
"291 612 LINE",
"423 612 LINE",
"423 700 LINE",
"291 700 LINE",
"291 750 LINE",
"231 750 LINE",
"231 700 LINE",
"177 699 OFFCURVE",
"133 685 OFFCURVE",
"99 658 CURVE SMOOTH",
"63 631 OFFCURVE",
"45 589 OFFCURVE",
"45 533 CURVE SMOOTH",
"45 442 OFFCURVE",
"97 377 OFFCURVE",
"202 337 CURVE SMOOTH",
"216 332 LINE",
"231 326 LINE",
"231 88 LINE",
"58 88 LINE",
"58 0 LINE",
"231 0 LINE",
"231 -60 LINE"
);
},
{
closed = 1;
nodes = (
"291 299 LINE",
"300 294 OFFCURVE",
"309 289 OFFCURVE",
"318 283 CURVE SMOOTH",
"349 263 OFFCURVE",
"365 236 OFFCURVE",
"365 200 CURVE SMOOTH",
"365 163 OFFCURVE",
"351 135 OFFCURVE",
"322 116 CURVE SMOOTH",
"313 110 OFFCURVE",
"302 105 OFFCURVE",
"291 101 CURVE"
);
},
{
closed = 1;
nodes = (
"215 439 OFFCURVE",
"201 447 OFFCURVE",
"189 455 CURVE",
"160 476 OFFCURVE",
"145 501 OFFCURVE",
"145 530 CURVE SMOOTH",
"145 580 OFFCURVE",
"174 607 OFFCURVE",
"231 611 CURVE",
"231 431 LINE"
);
}
);
width = 511;
}
);
unicode = 0024;
},
{
glyphname = euro;
lastChange = "2019-02-11 14:31:16 +0000";
layers = (
{
components = (
{
name = C;
transform = "{1, 0, 0, 1, 20, 0}";
}
);
layerId = master01;
paths = (
{
closed = 1;
nodes = (
"420 381 LINE",
"420 459 LINE",
"10 459 LINE",
"10 381 LINE"
);
},
{
closed = 1;
nodes = (
"400 253 LINE",
"400 331 LINE",
"-10 331 LINE",
"-10 253 LINE"
);
}
);
width = 535;
}
);
unicode = 20AC;
},
{
glyphname = hryvnia;
lastChange = "2019-02-11 14:31:16 +0000";
layers = (
{
layerId = master01;
paths = (
{
closed = 1;
nodes = (
"476 380 LINE",
"476 458 LINE",
"419 458 LINE",
"421 471 OFFCURVE",
"422 485 OFFCURVE",
"422 501 CURVE SMOOTH",
"422 643 OFFCURVE",
"294 696 OFFCURVE",
"212 699 CURVE SMOOTH",
"198 700 OFFCURVE",
"185 700 OFFCURVE",
"172 700 CURVE SMOOTH",
"96 700 LINE",
"96 612 LINE",
"169 612 LINE SMOOTH",
"254 612 OFFCURVE",
"323 577 OFFCURVE",
"323 500 CURVE SMOOTH",
"323 484 OFFCURVE",
"320 470 OFFCURVE",
"314 458 CURVE",
"56 458 LINE",
"56 380 LINE"
);
},
{
closed = 1;
nodes = (
"436 0 LINE",
"436 88 LINE",
"363 88 LINE SMOOTH",
"278 88 OFFCURVE",
"209 123 OFFCURVE",
"209 200 CURVE SMOOTH",
"209 216 OFFCURVE",
"212 230 OFFCURVE",
"218 242 CURVE",
"476 242 LINE",
"476 320 LINE",
"56 320 LINE",
"56 242 LINE",
"113 242 LINE",
"111 229 OFFCURVE",
"110 214 OFFCURVE",
"110 199 CURVE SMOOTH",
"110 57 OFFCURVE",
"238 4 OFFCURVE",
"320 1 CURVE SMOOTH",
"334 0 OFFCURVE",
"347 0 OFFCURVE",
"360 0 CURVE SMOOTH"
);
}
);
width = 527;
}
);
unicode = 20B4;
},
{
glyphname = ruble;
lastChange = "2019-02-11 14:31:16 +0000";
layers = (
{
layerId = master01;
paths = (
{
closed = 1;
nodes = (
"159 0 LINE {name = ah01;}",
"159 126 LINE",
"420 126 LINE {name = sh07;}",
"420 204 LINE {name = sv03;}",
"159 204 LINE {name = ah02;}",
"159 255 LINE {name = sv02;}",
"278 255 LINE SMOOTH {name = sh05;}",
"396 255 OFFCURVE",
"532 311 OFFCURVE",
"532 483 CURVE SMOOTH",
"532 608 OFFCURVE",
"452 710 OFFCURVE {name = sh06;}",
"297 710 CURVE SMOOTH {name = sv01;}",
"159 710 OFFCURVE {name = sh04;}",
"65 620 OFFCURVE {name = at01;}",
"65 460 CURVE SMOOTH",
"65 343 LINE {name = sh03;}",
"0 343 LINE",
"0 255 LINE",
"65 255 LINE {name = dv01;}",
"65 204 LINE {name = sh02;}",
"0 204 LINE",
"0 126 LINE",
"65 126 LINE",
"65 0 LINE {name = sh01;}"
);
},
{
closed = 1;
nodes = (
"159 464 LINE SMOOTH",
"159 556 OFFCURVE",
"208 622 OFFCURVE",
"296 622 CURVE SMOOTH",
"388 622 OFFCURVE",
"433 561 OFFCURVE",
"433 485 CURVE SMOOTH",
"433 406 OFFCURVE",
"381 343 OFFCURVE",
"289 343 CURVE SMOOTH {name = sh08;}",
"159 343 LINE"
);
}
);
width = 567;
}
);
},
{
glyphname = sterling;
lastChange = "2019-02-11 14:31:16 +0000";
layers = (
{
layerId = master01;
paths = (
{
closed = 1;
nodes = (
"354 0 LINE SMOOTH",
"469 0 OFFCURVE",
"544 87 OFFCURVE",
"544 214 CURVE SMOOTH",
"544 281 LINE",
"450 281 LINE",
"450 207 LINE SMOOTH",
"450 136 OFFCURVE",
"399 88 OFFCURVE",
"326 88 CURVE SMOOTH",
"183 88 LINE",
"219 123 OFFCURVE",
"217 162 OFFCURVE",
"217 197 CURVE SMOOTH",
"217 322 LINE",
"385 322 LINE",
"385 410 LINE",
"217 410 LINE",
"217 497 LINE SMOOTH",
"217 585 OFFCURVE",
"271 624 OFFCURVE",
"334 624 CURVE SMOOTH",
"371 624 OFFCURVE",
"405 610 OFFCURVE",
"422 603 CURVE",
"453 688 LINE",
"428 699 OFFCURVE",
"384 712 OFFCURVE",
"332 712 CURVE SMOOTH",
"200 712 OFFCURVE",
"123 620 OFFCURVE",
"123 489 CURVE SMOOTH",
"123 410 LINE",
"57 410 LINE",
"57 322 LINE",
"123 322 LINE",
"123 189 LINE SMOOTH",
"123 129 OFFCURVE",
"111 88 OFFCURVE",
"59 88 CURVE SMOOTH",
"44 88 LINE",
"44 0 LINE"
);
}
);
width = 548;
}
);
unicode = 00A3;
},
{
glyphname = yen;
lastChange = "2019-02-11 14:31:16 +0000";
layers = (
{
layerId = master01;
paths = (
{
closed = 1;
nodes = (
"320 0 LINE",
"320 132 LINE",
"491 132 LINE",
"491 210 LINE",
"320 210 LINE",
"320 260 LINE",
"491 260 LINE",
"491 338 LINE",
"396 338 LINE",
"464 418 OFFCURVE",
"498 531 OFFCURVE",
"498 650 CURVE SMOOTH",
"498 700 LINE",
"404 700 LINE",
"404 650 LINE SMOOTH",
"404 526 OFFCURVE",
"374 420 OFFCURVE",
"273 353 CURVE",
"169 419 OFFCURVE",
"141 525 OFFCURVE",
"141 650 CURVE SMOOTH",
"141 700 LINE",
"45 700 LINE",
"45 641 LINE SMOOTH",
"45 525 OFFCURVE",
"79 416 OFFCURVE",
"146 338 CURVE",
"51 338 LINE",
"51 260 LINE",
"226 260 LINE",
"226 210 LINE",
"51 210 LINE",
"51 132 LINE",
"226 132 LINE",
"226 0 LINE"
);
}
);
width = 543;
}
);
unicode = 00A5;
},
{
glyphname = plus;
lastChange = "2019-02-11 14:31:16 +0000";
layers = (
{
layerId = master01;
paths = (
{
closed = 1;
nodes = (
"329 0 LINE",
"329 201 LINE",
"530 201 LINE",
"530 279 LINE",
"329 279 LINE",
"329 480 LINE",
"251 480 LINE",
"251 279 LINE",
"50 279 LINE",
"50 201 LINE",
"251 201 LINE",
"251 0 LINE"
);
}
);
width = 580;
}
);
unicode = 002B;
},
{
glyphname = minus;
lastChange = "2019-02-11 14:31:16 +0000";
layers = (
{
layerId = master01;
paths = (
{
closed = 1;
nodes = (
"530 201 LINE",
"530 279 LINE",
"50 279 LINE",
"50 201 LINE"
);
}
);
width = 580;
}
);
unicode = 2212;
},
{
glyphname = multiply;
lastChange = "2019-02-11 14:31:16 +0000";
layers = (
{
layerId = master01;
paths = (
{
closed = 1;
nodes = (
"290 185 LINE",
"475 0 LINE",
"530 55 LINE",
"345 240 LINE",
"530 425 LINE",
"475 480 LINE",
"290 295 LINE",
"105 480 LINE",
"50 425 LINE",
"235 240 LINE",
"50 55 LINE",
"105 0 LINE"
);
}
);
width = 580;
}
);
unicode = 00D7;
},
{
glyphname = equal;
lastChange = "2019-02-11 14:31:16 +0000";
layers = (
{
layerId = master01;
paths = (
{
closed = 1;
nodes = (
"530 300 LINE",
"530 378 LINE",
"50 378 LINE",
"50 300 LINE"
);
},
{
closed = 1;
nodes = (
"530 102 LINE",
"530 180 LINE",
"50 180 LINE",
"50 102 LINE"
);
}
);
width = 580;
}
);
unicode = 003D;
},
{
glyphname = greater;
lastChange = "2019-02-11 14:31:16 +0000";
layers = (
{
layerId = master01;
paths = (
{
closed = 1;
nodes = (
"427 205 LINE",
"427 275 LINE",
"65 435 LINE",
"65 355 LINE",
"330 240 LINE",
"65 125 LINE",
"65 45 LINE"
);
}
);
width = 462;
}
);
unicode = 003E;
},
{
glyphname = less;
lastChange = "2019-02-11 14:31:16 +0000";
layers = (
{
layerId = master01;
paths = (
{
closed = 1;
nodes = (
"397 125 LINE",
"132 240 LINE",
"397 355 LINE",
"397 435 LINE",
"35 275 LINE",
"35 205 LINE",
"397 45 LINE"
);
}
);
width = 462;
}
);
unicode = 003C;
},
{
glyphname = plusminus;
lastChange = "2019-02-11 14:31:16 +0000";
layers = (
{
layerId = master01;
paths = (
{
closed = 1;
nodes = (
"329 112 LINE",
"329 257 LINE",
"530 257 LINE",
"530 335 LINE",
"329 335 LINE",
"329 480 LINE",
"251 480 LINE",
"251 335 LINE",
"50 335 LINE",
"50 257 LINE",
"251 257 LINE",
"251 112 LINE"
);
},
{
closed = 1;
nodes = (
"530 0 LINE",
"530 78 LINE",
"50 78 LINE",
"50 0 LINE"
);
}
);
width = 580;
}
);
unicode = 00B1;
},
{
glyphname = asciitilde;
lastChange = "2019-02-11 14:31:16 +0000";
layers = (
{
layerId = master01;
paths = (
{
closed = 1;
nodes = (
"132 217 OFFCURVE",
"163 236 OFFCURVE",
"199 236 CURVE SMOOTH",
"240 236 OFFCURVE",
"281 216 OFFCURVE",
"312 200 CURVE SMOOTH",
"345 183 OFFCURVE",
"375 168 OFFCURVE",
"411 168 CURVE SMOOTH",
"464 168 OFFCURVE",
"502 198 OFFCURVE",
"537 254 CURVE",
"501 316 LINE",
"488 289 OFFCURVE",
"455 244 OFFCURVE",
"411 244 CURVE SMOOTH",
"390 244 OFFCURVE",
"365 256 OFFCURVE",
"326 273 CURVE SMOOTH",
"279 294 OFFCURVE",
"241 312 OFFCURVE",
"200 312 CURVE SMOOTH",
"134 312 OFFCURVE",
"94 267 OFFCURVE",
"75 226 CURVE",
"111 164 LINE"
);
}
);
width = 612;
}
);
unicode = 007E;
},
{
glyphname = logicalnot;
layers = (
{
layerId = master01;
paths = (
{
closed = 1;
nodes = (
"530 112 LINE",
"530 328 LINE",
"50 328 LINE",
"50 250 LINE",
"452 250 LINE",
"452 112 LINE"
);
}
);
width = 580;
}
);
unicode = 00AC;
},
{
glyphname = asciicircum;
lastChange = "2019-02-11 14:31:16 +0000";
layers = (
{
layerId = master01;
paths = (
{
closed = 1;
nodes = (
"129 326 LINE",
"289 614 LINE",
"449 326 LINE",
"533 326 LINE",
"327 700 LINE",
"251 700 LINE",
"45 326 LINE"
);
}
);
width = 578;
}
);
unicode = 005E;
},
{
glyphname = mu;
lastChange = "2019-02-11 14:31:16 +0000";
layers = (
{
layerId = master01;
paths = (
{
closed = 1;
nodes = (
"135 -227 LINE",
"135 57 LINE",
"164 18 OFFCURVE",
"200 0 OFFCURVE",
"243 0 CURVE SMOOTH",
"286 0 OFFCURVE",
"322 18 OFFCURVE",
"351 57 CURVE",
"351 -1 LINE",
"439 -1 LINE",
"439 480 LINE",
"351 480 LINE",
"351 216 LINE SMOOTH",
"351 170 OFFCURVE",
"336 84 OFFCURVE",
"243 84 CURVE SMOOTH",
"139 84 OFFCURVE",
"135 186 OFFCURVE",
"135 230 CURVE SMOOTH",
"135 480 LINE",
"47 480 LINE",
"47 -227 LINE"
);
}
);
width = 498;
}
);
unicode = 00B5;
},
{
glyphname = percent;
lastChange = "2019-02-11 14:31:16 +0000";
layers = (
{
components = (
{
name = fraction;
transform = "{1, 0, 0, 1, 270, 0}";
}
);
layerId = master01;
paths = (
{
closed = 1;
nodes = (
"748 4 OFFCURVE",
"823 75 OFFCURVE",
"823 168 CURVE SMOOTH",
"823 261 OFFCURVE",
"748 332 OFFCURVE",
"659 332 CURVE SMOOTH",
"570 332 OFFCURVE",
"495 261 OFFCURVE",
"495 168 CURVE SMOOTH",
"495 75 OFFCURVE",
"570 4 OFFCURVE",
"659 4 CURVE SMOOTH"
);
},
{
closed = 1;
nodes = (
"328 384 OFFCURVE",
"403 455 OFFCURVE",
"403 548 CURVE SMOOTH",
"403 641 OFFCURVE",
"328 712 OFFCURVE",
"239 712 CURVE SMOOTH",
"150 712 OFFCURVE",
"75 641 OFFCURVE",
"75 548 CURVE SMOOTH",
"75 455 OFFCURVE",
"150 384 OFFCURVE",
"239 384 CURVE SMOOTH"
);
},
{
closed = 1;
nodes = (
"192 462 OFFCURVE",
"153 497 OFFCURVE",
"153 548 CURVE SMOOTH",
"153 599 OFFCURVE",
"193 634 OFFCURVE",
"238 634 CURVE SMOOTH",
"285 634 OFFCURVE",
"325 598 OFFCURVE",
"325 548 CURVE SMOOTH",
"325 497 OFFCURVE",
"286 462 OFFCURVE",
"239 462 CURVE SMOOTH"
);
},
{
closed = 1;
nodes = (
"612 82 OFFCURVE",
"573 117 OFFCURVE",
"573 168 CURVE SMOOTH",
"573 219 OFFCURVE",
"613 254 OFFCURVE",
"658 254 CURVE SMOOTH",
"705 254 OFFCURVE",
"745 218 OFFCURVE",
"745 168 CURVE SMOOTH",
"745 117 OFFCURVE",
"706 82 OFFCURVE",
"659 82 CURVE SMOOTH"
);
}
);
width = 898;
}
);
unicode = 0025;
},
{
glyphname = at;
lastChange = "2019-02-11 14:31:16 +0000";
layers = (
{
layerId = master01;
paths = (
{
closed = 1;
nodes = (
"491 -12 OFFCURVE",
"563 10 OFFCURVE",
"623 56 CURVE",
"623 137 LINE",
"558 88 OFFCURVE",
"513 64 OFFCURVE",
"416 64 CURVE SMOOTH",
"254 64 OFFCURVE",
"134 182 OFFCURVE",
"134 344 CURVE SMOOTH",
"134 458 OFFCURVE",
"194 548 OFFCURVE",
"272 594 CURVE SMOOTH",
"313 617 OFFCURVE",
"360 630 OFFCURVE",
"407 630 CURVE SMOOTH",
"453 630 OFFCURVE",
"499 621 OFFCURVE",
"539 600 CURVE",
"538 600 LINE",
"586 572 OFFCURVE",
"649 514 OFFCURVE",
"649 399 CURVE SMOOTH",
"649 323 OFFCURVE",
"620 253 OFFCURVE",
"592 253 CURVE SMOOTH",
"578 253 OFFCURVE",
"578 263 OFFCURVE",
"578 275 CURVE SMOOTH",
"578 315 LINE SMOOTH",
"578 363 OFFCURVE",
"576 417 OFFCURVE",
"541 463 CURVE SMOOTH",
"514 499 OFFCURVE",
"468 527 OFFCURVE",
"407 527 CURVE SMOOTH",
"376 527 OFFCURVE",
"348 521 OFFCURVE",
"323 507 CURVE SMOOTH",
"277 483 OFFCURVE",
"227 434 OFFCURVE",
"227 348 CURVE SMOOTH",
"227 239 OFFCURVE",
"305 173 OFFCURVE",
"398 173 CURVE SMOOTH",
"432 173 OFFCURVE",
"456 183 OFFCURVE",
"471 193 CURVE",
"471 271 LINE",
"449 254 OFFCURVE",
"430 249 OFFCURVE",
"406 249 CURVE SMOOTH",
"351 249 OFFCURVE",
"306 288 OFFCURVE",
"306 346 CURVE SMOOTH",
"306 401 OFFCURVE",
"340 451 OFFCURVE",
"401 451 CURVE SMOOTH",
"498 451 OFFCURVE",
"499 347 OFFCURVE",
"499 318 CURVE SMOOTH",
"499 270 LINE SMOOTH",
"499 240 OFFCURVE",
"503 173 OFFCURVE",
"574 173 CURVE SMOOTH",
"656 173 OFFCURVE",
"729 277 OFFCURVE",
"729 408 CURVE SMOOTH",
"729 547 OFFCURVE",
"642 634 OFFCURVE",
"561 674 CURVE SMOOTH",
"516 695 OFFCURVE",
"463 705 OFFCURVE",
"415 705 CURVE SMOOTH",
"357 705 OFFCURVE",
"302 693 OFFCURVE",
"251 666 CURVE SMOOTH",
"150 612 OFFCURVE",
"55 506 OFFCURVE",
"55 348 CURVE SMOOTH",
"55 146 OFFCURVE",
"218 -12 OFFCURVE",
"420 -12 CURVE SMOOTH"
);
}
);
width = 784;
}
);
unicode = 0040;
},
{
glyphname = ampersand;
lastChange = "2019-02-11 14:31:16 +0000";
layers = (
{
layerId = master01;
paths = (
{
closed = 1;
nodes = (
"347 0 OFFCURVE",
"498 15 OFFCURVE",
"510 199 CURVE",
"510 328 LINE",
"566 328 LINE",
"566 416 LINE",
"307 416 LINE SMOOTH",
"252 416 OFFCURVE",
"172 435 OFFCURVE",
"172 520 CURVE SMOOTH",
"172 600 OFFCURVE",
"238 612 OFFCURVE",
"282 612 CURVE SMOOTH",
"355 611 OFFCURVE",
"386 583 OFFCURVE",
"392 533 CURVE",
"487 533 LINE",
"482 640 OFFCURVE",
"419 700 OFFCURVE",
"295 700 CURVE SMOOTH",
"233 700 OFFCURVE",
"173 697 OFFCURVE",
"125 652 CURVE SMOOTH",
"102 630 OFFCURVE",
"78 593 OFFCURVE",
"78 533 CURVE SMOOTH",
"78 460 OFFCURVE",
"107 403 OFFCURVE",
"185 376 CURVE",
"185 372 LINE",
"94 347 OFFCURVE",
"55 276 OFFCURVE",
"55 199 CURVE SMOOTH",
"55 152 OFFCURVE",
"66 109 OFFCURVE",
"101 70 CURVE SMOOTH",
"156 7 OFFCURVE",
"224 0 OFFCURVE",
"283 0 CURVE SMOOTH"
);
},
{
closed = 1;
nodes = (
"196 88 OFFCURVE",
"149 136 OFFCURVE",
"149 206 CURVE SMOOTH",
"149 301 OFFCURVE",
"209 328 OFFCURVE",
"319 328 CURVE SMOOTH",
"417 328 LINE",
"417 206 LINE",
"416 206 LINE",
"410 118 OFFCURVE",
"351 88 OFFCURVE",
"289 88 CURVE SMOOTH"
);
}
);
userData = {
com.typemytype.robofont.guides = (
{
angle = 0;
isGlobal = 0;
magnetic = 5;
x = 0;
y = 533;
}
);
};
width = 591;
}
);
unicode = 0026;
},
{
glyphname = paragraph;
lastChange = "2019-02-11 14:31:16 +0000";
layers = (
{
layerId = master01;
paths = (
{
closed = 1;
nodes = (
"370 0 LINE",
"370 612 LINE",
"437 612 LINE",
"437 0 LINE",
"521 0 LINE",
"521 700 LINE",
"284 700 LINE SMOOTH",
"185 700 OFFCURVE",
"45 682 OFFCURVE",
"45 522 CURVE SMOOTH",
"45 471 OFFCURVE",
"67 346 OFFCURVE",
"271 346 CURVE SMOOTH",
"286 346 LINE",
"286 0 LINE"
);
}
);
width = 596;
}
);
unicode = 00B6;
},
{
glyphname = section;
lastChange = "2019-02-11 14:31:16 +0000";
layers = (
{
layerId = master01;
paths = (
{
closed = 1;
nodes = (
"259 -55 LINE SMOOTH",
"390 -55 OFFCURVE",
"417 19 OFFCURVE",
"417 67 CURVE SMOOTH",
"417 114 OFFCURVE",
"389 159 OFFCURVE",
"340 186 CURVE",
"404 197 OFFCURVE",
"438 248 OFFCURVE",
"438 309 CURVE SMOOTH",
"438 395 OFFCURVE",
"379 447 OFFCURVE",
"299 492 CURVE SMOOTH",
"242 525 OFFCURVE",
"181 545 OFFCURVE",
"181 591 CURVE SMOOTH",
"181 628 OFFCURVE",
"221 628 OFFCURVE",
"236 628 CURVE SMOOTH",
"421 628 LINE",
"421 712 LINE",
"248 712 LINE SMOOTH",
"132 712 OFFCURVE",
"91 652 OFFCURVE",
"91 592 CURVE SMOOTH",
"91 535 OFFCURVE",
"120 498 OFFCURVE",
"180 463 CURVE",
"115 462 OFFCURVE",
"68 413 OFFCURVE",
"68 345 CURVE SMOOTH",
"68 255 OFFCURVE",
"148 202 OFFCURVE",
"209 167 CURVE SMOOTH",
"267 135 OFFCURVE",
"327 117 OFFCURVE",
"327 69 CURVE SMOOTH",
"327 37 OFFCURVE",
"298 29 OFFCURVE",
"273 29 CURVE SMOOTH",
"55 29 LINE",
"55 -55 LINE"
);
},
{
closed = 1;
nodes = (
"239 233 OFFCURVE",
"151 289 OFFCURVE",
"151 351 CURVE SMOOTH",
"151 392 OFFCURVE",
"178 422 OFFCURVE",
"221 422 CURVE SMOOTH",
"230 422 OFFCURVE",
"240 420 OFFCURVE",
"251 417 CURVE SMOOTH",
"296 404 OFFCURVE",
"353 356 OFFCURVE",
"353 303 CURVE SMOOTH",
"353 254 OFFCURVE",
"315 233 OFFCURVE",
"283 233 CURVE SMOOTH"
);
}
);
width = 493;
}
);
unicode = 00A7;
},
{
glyphname = copyright;
lastChange = "2019-02-11 14:31:16 +0000";
layers = (
{
layerId = master01;
paths = (
{
closed = 1;
nodes = (
"601 -12 OFFCURVE",
"763 139 OFFCURVE",
"763 350 CURVE SMOOTH",
"763 561 OFFCURVE",
"601 712 OFFCURVE",
"409 712 CURVE SMOOTH",
"217 712 OFFCURVE",
"55 561 OFFCURVE",
"55 350 CURVE SMOOTH",
"55 139 OFFCURVE",
"217 -12 OFFCURVE",
"409 -12 CURVE SMOOTH"
);
},
{
closed = 1;
nodes = (
"502 126 LINE",
"502 200 LINE",
"448 200 LINE SMOOTH",
"348 200 OFFCURVE",
"298 268 OFFCURVE",
"298 337 CURVE SMOOTH",
"298 382 OFFCURVE",
"317 422 OFFCURVE",
"348 445 CURVE SMOOTH",
"383 472 OFFCURVE",
"421 473 OFFCURVE",
"458 473 CURVE SMOOTH",
"502 473 LINE",
"502 547 LINE",
"458 547 LINE SMOOTH",
"406 547 OFFCURVE",
"358 545 OFFCURVE",
"307 510 CURVE SMOOTH",
"248 471 OFFCURVE",
"217 405 OFFCURVE",
"217 337 CURVE SMOOTH",
"217 233 OFFCURVE",
"291 126 OFFCURVE",
"446 126 CURVE SMOOTH"
);
},
{
closed = 1;
nodes = (
"240 52 OFFCURVE",
"125 188 OFFCURVE",
"125 350 CURVE SMOOTH",
"125 510 OFFCURVE",
"240 648 OFFCURVE",
"409 648 CURVE SMOOTH",
"578 648 OFFCURVE",
"693 510 OFFCURVE",
"693 350 CURVE SMOOTH",
"693 188 OFFCURVE",
"576 52 OFFCURVE",
"409 52 CURVE SMOOTH"
);
}
);
width = 818;
}
);
unicode = 00A9;
},
{
glyphname = registered;
lastChange = "2019-02-11 14:31:16 +0000";
layers = (
{
layerId = master01;
paths = (
{
closed = 1;
nodes = (
"601 -12 OFFCURVE",
"763 139 OFFCURVE",
"763 350 CURVE SMOOTH",
"763 561 OFFCURVE",
"601 712 OFFCURVE",
"409 712 CURVE SMOOTH",
"217 712 OFFCURVE",
"55 561 OFFCURVE",
"55 350 CURVE SMOOTH",
"55 139 OFFCURVE",
"217 -12 OFFCURVE",
"409 -12 CURVE SMOOTH"
);
},
{
closed = 1;
nodes = (
"240 52 OFFCURVE",
"125 188 OFFCURVE",
"125 350 CURVE SMOOTH",
"125 510 OFFCURVE",
"240 648 OFFCURVE",
"409 648 CURVE SMOOTH",
"578 648 OFFCURVE",
"693 510 OFFCURVE",
"693 350 CURVE SMOOTH",
"693 188 OFFCURVE",
"576 52 OFFCURVE",
"409 52 CURVE SMOOTH"
);
},
{
closed = 1;
nodes = (
"339 141 LINE",
"339 413 LINE SMOOTH",
"339 430 OFFCURVE",
"341 495 OFFCURVE",
"403 495 CURVE SMOOTH",
"443 495 OFFCURVE",
"467 472 OFFCURVE",
"467 441 CURVE SMOOTH",
"467 414 OFFCURVE",
"450 384 OFFCURVE",
"395 384 CURVE SMOOTH",
"370 384 LINE",
"370 315 LINE",
"411 315 LINE SMOOTH",
"439 315 OFFCURVE",
"474 310 OFFCURVE",
"474 253 CURVE SMOOTH",
"474 141 LINE",
"547 141 LINE",
"547 269 LINE SMOOTH",
"547 300 OFFCURVE",
"540 336 OFFCURVE",
"502 355 CURVE",
"527 376 OFFCURVE",
"540 403 OFFCURVE",
"540 437 CURVE SMOOTH",
"540 489 OFFCURVE",
"514 523 OFFCURVE",
"488 541 CURVE SMOOTH",
"465 557 OFFCURVE",
"433 564 OFFCURVE",
"404 564 CURVE SMOOTH",
"382 564 OFFCURVE",
"351 555 OFFCURVE",
"331 546 CURVE",
"270 511 OFFCURVE",
"266 450 OFFCURVE",
"266 403 CURVE SMOOTH",
"266 141 LINE"
);
}
);
width = 815;
}
);
unicode = 00AE;
},
{
glyphname = degree;
lastChange = "2019-02-11 14:31:16 +0000";
layers = (
{
layerId = master01;
paths = (
{
closed = 1;
nodes = (
"235 493 OFFCURVE",
"284 542 OFFCURVE",
"284 607 CURVE SMOOTH",
"284 673 OFFCURVE",
"235 722 OFFCURVE",
"169 722 CURVE SMOOTH",
"104 722 OFFCURVE",
"55 673 OFFCURVE",
"55 607 CURVE SMOOTH",
"55 542 OFFCURVE",
"104 493 OFFCURVE",
"169 493 CURVE SMOOTH"
);
},
{
closed = 1;
nodes = (
"141 558 OFFCURVE",
"120 579 OFFCURVE",
"120 607 CURVE SMOOTH",
"120 636 OFFCURVE",
"141 657 OFFCURVE",
"169 657 CURVE SMOOTH",
"198 657 OFFCURVE",
"219 636 OFFCURVE",
"219 607 CURVE SMOOTH",
"219 579 OFFCURVE",
"198 558 OFFCURVE",
"169 558 CURVE SMOOTH"
);
}
);
width = 339;
}
);
unicode = 00B0;
},
{
glyphname = bar;
layers = (
{
layerId = master01;
paths = (
{
closed = 1;
nodes = (
"145 0 LINE",
"145 700 LINE",
"75 700 LINE",
"75 0 LINE"
);
}
);
width = 220;
}
);
unicode = 007C;
},
{
glyphname = brokenbar;
layers = (
{
layerId = master01;
paths = (
{
closed = 1;
nodes = (
"145 418 LINE",
"145 700 LINE",
"75 700 LINE",
"75 418 LINE"
);
},
{
closed = 1;
nodes = (
"145 0 LINE",
"145 282 LINE",
"75 282 LINE",
"75 0 LINE"
);
}
);
width = 220;
}
);
unicode = 00A6;
},
{
glyphname = acute;
layers = (
{
layerId = master01;
paths = (
{
closed = 1;
nodes = (
"215 653 LINE",
"153 715 LINE",
"35 567 LINE",
"87 525 LINE"
);
}
);
width = 250;
}
);
unicode = 00B4;
},
{
glyphname = caron;
lastChange = "2019-02-11 14:31:16 +0000";
layers = (
{
layerId = master01;
paths = (
{
closed = 1;
nodes = (
"242 558 LINE",
"352 700 LINE",
"271 700 LINE",
"192 606 LINE",
"112 700 LINE",
"31 700 LINE",
"141 558 LINE"
);
}
);
width = 382;
}
);
unicode = 02C7;
},
{
glyphname = cedilla;
lastChange = "2019-02-11 14:31:16 +0000";
layers = (
{
layerId = master01;
paths = (
{
closed = 1;
nodes = (
"219 -228 OFFCURVE",
"262 -184 OFFCURVE",
"262 -131 CURVE SMOOTH",
"262 -101 OFFCURVE",
"249 -53 OFFCURVE",
"174 -53 CURVE SMOOTH",
"163 -53 OFFCURVE",
"153 -54 OFFCURVE",
"142 -56 CURVE",
"170 10 LINE",
"109 10 LINE",
"73 -80 LINE",
"92 -101 LINE",
"108 -94 OFFCURVE",
"123 -93 OFFCURVE",
"132 -93 CURVE SMOOTH",
"166 -93 OFFCURVE",
"182 -115 OFFCURVE",
"182 -135 CURVE SMOOTH",
"182 -152 OFFCURVE",
"173 -179 OFFCURVE",
"124 -179 CURVE SMOOTH",
"108 -179 OFFCURVE",
"86 -177 OFFCURVE",
"54 -163 CURVE",
"35 -204 LINE",
"84 -225 OFFCURVE",
"121 -228 OFFCURVE",
"139 -228 CURVE SMOOTH"
);
}
);
width = 217;
}
);
unicode = 00B8;
},
{
glyphname = circumflex;
lastChange = "2019-02-11 14:31:16 +0000";
layers = (
{
layerId = master01;
paths = (
{
closed = 1;
nodes = (
"112 558 LINE",
"191 652 LINE",
"271 558 LINE",
"352 558 LINE",
"242 700 LINE",
"141 700 LINE",
"31 558 LINE"
);
}
);
width = 382;
}
);
unicode = 02C6;
},
{
glyphname = dieresis;
lastChange = "2019-02-11 14:31:16 +0000";
layers = (
{
layerId = master01;
paths = (
{
closed = 1;
nodes = (
"303 568 OFFCURVE",
"327 592 OFFCURVE",
"327 624 CURVE SMOOTH",
"327 656 OFFCURVE",
"303 680 OFFCURVE",
"271 680 CURVE SMOOTH",
"239 680 OFFCURVE",
"215 656 OFFCURVE",
"215 624 CURVE SMOOTH",
"215 592 OFFCURVE",
"239 568 OFFCURVE",
"271 568 CURVE SMOOTH"
);
},
{
closed = 1;
nodes = (
"123 568 OFFCURVE",
"147 592 OFFCURVE",
"147 624 CURVE SMOOTH",
"147 656 OFFCURVE",
"123 680 OFFCURVE",
"91 680 CURVE SMOOTH",
"59 680 OFFCURVE",
"35 656 OFFCURVE",
"35 624 CURVE SMOOTH",
"35 592 OFFCURVE",
"59 568 OFFCURVE",
"91 568 CURVE SMOOTH"
);
}
);
width = 362;
}
);
unicode = 00A8;
},
{
glyphname = grave;
lastChange = "2019-02-11 14:31:16 +0000";
layers = (
{
layerId = master01;
paths = (
{
closed = 1;
nodes = (
"215 567 LINE",
"97 715 LINE",
"35 653 LINE",
"163 525 LINE"
);
}
);
width = 250;
}
);
unicode = 0060;
},
{
glyphname = macron;
lastChange = "2019-02-11 14:31:16 +0000";
layers = (
{
layerId = master01;
paths = (
{
closed = 1;
nodes = (
"300 572 LINE",
"300 640 LINE",
"-10 640 LINE",
"-10 572 LINE"
);
}
);
width = 290;
}
);
unicode = 00AF;
},
{
glyphname = ring;
lastChange = "2019-02-11 14:31:16 +0000";
layers = (
{
layerId = master01;
paths = (
{
closed = 1;
nodes = (
"189 526 OFFCURVE",
"231 568 OFFCURVE",
"231 624 CURVE SMOOTH",
"231 680 OFFCURVE",
"189 722 OFFCURVE",
"133 722 CURVE SMOOTH",
"77 722 OFFCURVE",
"35 680 OFFCURVE",
"35 624 CURVE SMOOTH",
"35 568 OFFCURVE",
"77 526 OFFCURVE",
"133 526 CURVE SMOOTH"
);
},
{
closed = 1;
nodes = (
"106 576 OFFCURVE",
"85 597 OFFCURVE",
"85 624 CURVE SMOOTH",
"85 651 OFFCURVE",
"106 671 OFFCURVE",
"133 671 CURVE SMOOTH",
"160 671 OFFCURVE",
"180 651 OFFCURVE",
"180 624 CURVE SMOOTH",
"180 597 OFFCURVE",
"160 576 OFFCURVE",
"133 576 CURVE SMOOTH"
);
}
);
width = 266;
}
);
unicode = 02DA;
},
{
glyphname = tilde;
lastChange = "2019-02-11 14:31:16 +0000";
layers = (
{
layerId = master01;
paths = (
{
closed = 1;
nodes = (
"86 554 LINE",
"91 585 OFFCURVE",
"110 601 OFFCURVE",
"134 601 CURVE SMOOTH",
"150 601 OFFCURVE",
"167 594 OFFCURVE",
"192 585 CURVE",
"211 576 OFFCURVE",
"260 561 OFFCURVE",
"285 561 CURVE SMOOTH",
"343 561 OFFCURVE",
"390 612 OFFCURVE",
"393 676 CURVE",
"342 676 LINE",
"342 652 OFFCURVE",
"323 629 OFFCURVE",
"293 629 CURVE SMOOTH",
"268 629 OFFCURVE",
"242 641 OFFCURVE",
"221 650 CURVE",
"189 662 OFFCURVE",
"167 669 OFFCURVE",
"140 669 CURVE SMOOTH",
"64 669 OFFCURVE",
"38 604 OFFCURVE",
"35 554 CURVE"
);
}
);
width = 428;
}
);
unicode = 02DC;
},
{
glyphname = foundryicon;
lastChange = "2019-02-11 14:31:16 +0000";
layers = (
{
layerId = master01;
paths = (
{
closed = 1;
nodes = (
"767 -182 OFFCURVE",
"802 38 OFFCURVE",
"778 235 CURVE",
"762 253 OFFCURVE",
"727 267 OFFCURVE",
"706 265 CURVE",
"713 218 OFFCURVE",
"731 124 OFFCURVE",
"714 47 CURVE SMOOTH",
"713 42 OFFCURVE",
"710 32 OFFCURVE",
"701 30 CURVE",
"683 87 OFFCURVE",
"683 151 OFFCURVE",
"687 218 CURVE",
"671 233 OFFCURVE",
"640 239 OFFCURVE",
"628 241 CURVE",
"621 227 OFFCURVE",
"616 205 OFFCURVE",
"616 175 CURVE SMOOTH",
"616 142 OFFCURVE",
"619 108 OFFCURVE",
"627 80 CURVE",
"618 59 OFFCURVE",
"598 23 OFFCURVE",
"566 13 CURVE",
"487 69 OFFCURVE",
"516 320 OFFCURVE",
"557 359 CURVE",
"568 345 OFFCURVE",
"580 293 OFFCURVE",
"575 260 CURVE",
"574 257 OFFCURVE",
"574 250 OFFCURVE",
"581 258 CURVE",
"604 278 OFFCURVE",
"621 303 OFFCURVE",
"621 333 CURVE SMOOTH",
"621 411 OFFCURVE",
"564 424 OFFCURVE",
"526 432 CURVE",
"458 373 OFFCURVE",
"434 270 OFFCURVE",
"435 169 CURVE SMOOTH",
"437 81 OFFCURVE",
"473 -10 OFFCURVE",
"569 -10 CURVE SMOOTH",
"610 -10 OFFCURVE",
"630 20 OFFCURVE",
"639 45 CURVE",
"652 18 OFFCURVE",
"673 0 OFFCURVE",
"702 0 CURVE SMOOTH",
"710 0 OFFCURVE",
"718 6 OFFCURVE",
"721 11 CURVE",
"711 -71 OFFCURVE",
"709 -126 OFFCURVE",
"658 -160 CURVE",
"652 -136 OFFCURVE",
"656 -104 OFFCURVE",
"659 -81 CURVE",
"643 -64 OFFCURVE",
"618 -58 OFFCURVE",
"598 -58 CURVE",
"593 -74 OFFCURVE",
"589 -93 OFFCURVE",
"589 -113 CURVE SMOOTH",
"589 -158 OFFCURVE",
"600 -182 OFFCURVE",
"644 -182 CURVE SMOOTH"
);
},
{
closed = 1;
nodes = (
"252 25 OFFCURVE",
"253 25 OFFCURVE",
"253 26 CURVE",
"251 32 OFFCURVE",
"247 37 OFFCURVE",
"244 39 CURVE",
"252 38 OFFCURVE",
"254 36 OFFCURVE",
"259 31 CURVE",
"260 32 OFFCURVE",
"261 32 OFFCURVE",
"261 33 CURVE",
"254 42 OFFCURVE",
"244 42 OFFCURVE",
"239 43 CURVE",
"214 61 LINE",
"214 62 OFFCURVE",
"216 62 OFFCURVE",
"218 63 CURVE",
"222 62 OFFCURVE",
"226 68 OFFCURVE",
"227 70 CURVE",
"232 69 OFFCURVE",
"237 69 OFFCURVE",
"243 69 CURVE SMOOTH",
"251 69 LINE",
"251 68 OFFCURVE",
"254 63 OFFCURVE",
"257 63 CURVE",
"255 62 OFFCURVE",
"254 61 OFFCURVE",
"254 59 CURVE SMOOTH",
"254 57 OFFCURVE",
"266 54 OFFCURVE",
"279 47 CURVE",
"274 45 OFFCURVE",
"271 45 OFFCURVE",
"266 41 CURVE",
"269 39 LINE",
"276 42 OFFCURVE",
"277 43 OFFCURVE",
"284 43 CURVE",
"292 44 OFFCURVE",
"298 40 OFFCURVE",
"304 34 CURVE",
"304 34 OFFCURVE",
"305 34 OFFCURVE",
"306 36 CURVE",
"304 41 OFFCURVE",
"299 43 OFFCURVE",
"295 45 CURVE",
"303 45 OFFCURVE",
"307 43 OFFCURVE",
"313 41 CURVE",
"314 42 OFFCURVE",
"314 41 OFFCURVE",
"314 42 CURVE",
"304 49 OFFCURVE",
"295 49 OFFCURVE",
"289 48 CURVE",
"279 53 OFFCURVE",
"269 57 OFFCURVE",
"260 60 CURVE",
"264 63 LINE",
"269 65 OFFCURVE",
"269 71 OFFCURVE",
"269 72 CURVE",
"332 90 OFFCURVE",
"342 171 OFFCURVE",
"366 209 CURVE",
"376 222 LINE",
"376 222 OFFCURVE",
"377 222 OFFCURVE",
"376 223 CURVE",
"363 223 LINE",
"367 236 LINE",
"367 236 OFFCURVE",
"368 238 OFFCURVE",
"366 238 CURVE",
"353 233 LINE",
"348 236 OFFCURVE",
"341 238 OFFCURVE",
"334 238 CURVE SMOOTH",
"317 238 OFFCURVE",
"299 225 OFFCURVE",
"293 204 CURVE",
"281 193 OFFCURVE",
"214 182 OFFCURVE",
"145 169 CURVE",
"132 169 OFFCURVE",
"48 178 OFFCURVE",
"46 179 CURVE",
"43 179 OFFCURVE",
"41 175 OFFCURVE",
"45 172 CURVE",
"63 155 OFFCURVE",
"110 157 OFFCURVE",
"123 144 CURVE SMOOTH",
"141 125 OFFCURVE",
"168 89 OFFCURVE",
"208 75 CURVE",
"209 73 OFFCURVE",
"207 68 OFFCURVE",
"211 65 CURVE",
"208 63 OFFCURVE",
"207 62 OFFCURVE",
"207 61 CURVE SMOOTH",
"207 58 OFFCURVE",
"219 53 OFFCURVE",
"230 44 CURVE",
"223 43 OFFCURVE",
"217 43 OFFCURVE",
"212 41 CURVE",
"212 40 OFFCURVE",
"212 39 OFFCURVE",
"213 38 CURVE",
"220 40 OFFCURVE",
"228 41 OFFCURVE",
"234 39 CURVE",
"241 38 OFFCURVE",
"246 31 OFFCURVE",
"250 25 CURVE"
);
},
{
closed = 1;
nodes = (
"370 30 OFFCURVE",
"371 31 OFFCURVE",
"371 34 CURVE SMOOTH",
"371 36 OFFCURVE",
"370 37 OFFCURVE",
"366 37 CURVE SMOOTH",
"363 37 OFFCURVE",
"361 36 OFFCURVE",
"361 34 CURVE SMOOTH",
"361 31 OFFCURVE",
"363 30 OFFCURVE",
"366 30 CURVE SMOOTH"
);
},
{
closed = 1;
nodes = (
"388 23 LINE SMOOTH",
"390 23 OFFCURVE",
"391 24 OFFCURVE",
"392 26 CURVE",
"392 28 LINE",
"391 29 OFFCURVE",
"390 30 OFFCURVE",
"388 30 CURVE SMOOTH",
"385 30 LINE SMOOTH",
"384 30 OFFCURVE",
"384 30 OFFCURVE",
"383 29 CURVE SMOOTH",
"382 28 LINE",
"382 27 LINE SMOOTH",
"382 25 OFFCURVE",
"382 24 OFFCURVE",
"383 24 CURVE",
"383 24 OFFCURVE",
"383 23 OFFCURVE",
"384 23 CURVE SMOOTH"
);
},
{
closed = 1;
nodes = (
"417 26 LINE SMOOTH",
"419 26 OFFCURVE",
"420 27 OFFCURVE",
"420 29 CURVE SMOOTH",
"420 30 LINE SMOOTH",
"420 31 OFFCURVE",
"419 32 OFFCURVE",
"419 34 CURVE",
"418 35 OFFCURVE",
"417 36 OFFCURVE",
"416 36 CURVE SMOOTH",
"415 36 LINE",
"414 35 LINE SMOOTH",
"413 34 OFFCURVE",
"412 31 OFFCURVE",
"412 30 CURVE SMOOTH",
"412 29 LINE SMOOTH",
"412 27 OFFCURVE",
"414 26 OFFCURVE",
"416 26 CURVE SMOOTH"
);
},
{
closed = 1;
nodes = (
"850 -8 OFFCURVE",
"867 11 OFFCURVE",
"874 37 CURVE",
"881 55 OFFCURVE",
"881 89 OFFCURVE",
"881 110 CURVE",
"886 133 OFFCURVE",
"903 150 OFFCURVE",
"910 167 CURVE",
"915 133 OFFCURVE",
"935 120 OFFCURVE",
"969 129 CURVE",
"964 159 OFFCURVE",
"967 200 OFFCURVE",
"972 230 CURVE",
"963 245 OFFCURVE",
"939 253 OFFCURVE",
"913 255 CURVE",
"908 245 OFFCURVE",
"903 227 OFFCURVE",
"903 215 CURVE",
"898 199 OFFCURVE",
"889 180 OFFCURVE",
"874 153 CURVE",
"872 187 OFFCURVE",
"864 210 OFFCURVE",
"855 227 CURVE",
"844 239 OFFCURVE",
"828 242 QCURVE SMOOTH",
"813 245 OFFCURVE",
"788 247 QCURVE",
"815 181 OFFCURVE",
"818 71 OFFCURVE",
"822 -4 CURVE"
);
},
{
closed = 1;
nodes = (
"1042 124 OFFCURVE",
"1047 161 OFFCURVE",
"1058 195 CURVE",
"1063 187 OFFCURVE",
"1069 171 OFFCURVE",
"1069 153 CURVE SMOOTH",
"1069 123 OFFCURVE",
"1060 87 OFFCURVE",
"1042 84 CURVE"
);
},
{
closed = 1;
nodes = (
"1155 75 OFFCURVE",
"1173 169 OFFCURVE",
"1192 192 CURVE",
"1190 169 OFFCURVE",
"1189 112 OFFCURVE",
"1201 66 CURVE",
"1199 49 OFFCURVE",
"1182 31 OFFCURVE",
"1172 23 CURVE"
);
},
{
closed = 1;
nodes = (
"1285 -6 OFFCURVE",
"1300 13 OFFCURVE",
"1305 31 CURVE",
"1319 7 OFFCURVE",
"1342 -6 OFFCURVE",
"1372 -6 CURVE SMOOTH",
"1447 -6 OFFCURVE",
"1454 95 OFFCURVE",
"1447 140 CURVE SMOOTH",
"1445 151 OFFCURVE",
"1443 145 OFFCURVE",
"1443 140 CURVE",
"1431 78 OFFCURVE",
"1410 39 OFFCURVE",
"1382 18 CURVE",
"1364 44 OFFCURVE",
"1356 79 OFFCURVE",
"1356 122 CURVE",
"1402 143 OFFCURVE",
"1427 229 OFFCURVE",
"1427 300 CURVE SMOOTH",
"1427 375 OFFCURVE",
"1407 407 OFFCURVE",
"1334 419 CURVE",
"1285 331 OFFCURVE",
"1271 177 OFFCURVE",
"1294 61 CURVE",
"1296 53 LINE",
"1291 43 OFFCURVE",
"1277 15 OFFCURVE",
"1265 18 CURVE",
"1247 80 OFFCURVE",
"1253 180 OFFCURVE",
"1262 245 CURVE",
"1253 255 OFFCURVE",
"1221 268 OFFCURVE",
"1207 265 CURVE",
"1203 261 OFFCURVE",
"1195 227 OFFCURVE",
"1194 221 CURVE",
"1181 225 OFFCURVE",
"1164 229 OFFCURVE",
"1150 229 CURVE",
"1121 198 OFFCURVE",
"1111 157 OFFCURVE",
"1109 112 CURVE",
"1109 79 LINE",
"1101 59 OFFCURVE",
"1087 30 OFFCURVE",
"1064 20 CURVE",
"1052 28 OFFCURVE",
"1047 45 OFFCURVE",
"1043 62 CURVE",
"1077 73 OFFCURVE",
"1095 120 OFFCURVE",
"1095 162 CURVE SMOOTH",
"1095 223 OFFCURVE",
"1057 245 OFFCURVE",
"1004 241 CURVE",
"989 215 OFFCURVE",
"979 162 OFFCURVE",
"978 117 CURVE SMOOTH",
"975 57 OFFCURVE",
"997 0 OFFCURVE",
"1062 0 CURVE",
"1089 3 OFFCURVE",
"1107 22 OFFCURVE",
"1117 39 CURVE",
"1124 16 OFFCURVE",
"1141 0 OFFCURVE",
"1173 0 CURVE",
"1189 2 OFFCURVE",
"1211 15 OFFCURVE",
"1215 32 CURVE",
"1222 15 OFFCURVE",
"1241 -6 OFFCURVE",
"1264 -6 CURVE SMOOTH"
);
},
{
closed = 1;
nodes = (
"1358 215 OFFCURVE",
"1370 290 OFFCURVE",
"1383 341 CURVE",
"1392 291 OFFCURVE",
"1383 191 OFFCURVE",
"1355 151 CURVE"
);
}
);
userData = {
com.typemytype.robofont.guides = (
{
angle = 0;
isGlobal = 0;
magnetic = 5;
x = 0;
y = 282;
}
);
};
width = 1492;
}
);
},
